<svg xmlns="http://www.w3.org/2000/svg" width="544.563" height="289.582" viewBox="0 0 544.563 289.582">
  <g id="Group_1955" data-name="Group 1955" transform="translate(-238.065 -183.872)">
    <g id="Group_1954" data-name="Group 1954" transform="translate(238.065 183.872)">
      <path id="Path_16589" data-name="Path 16589" d="M271.357,615.452s-61.108-130.13,59.328-130.13c63.634,0,37.42-35.7,80.683-77.024s194.563-74.332,226.766,5.458-47.382,140.371,29.52,129.979c92.413-12.488,128.919,71.717,128.919,71.717Z" transform="translate(-252.01 -325.878)" fill="#f4f4f4"/>
      <path id="Path_16590" data-name="Path 16590" d="M1343.071,1187.2c-5.7-4.167-17.354-1.354-25.955,1.655a39.251,39.251,0,0,0-4.727-5.485c18.527-11.935,44.115-37.386,30.552-39.541-11.789-1.873-27.7,21.037-36.2,34.983-8.83-5.94-22.36-10.307-43.017-8.792-53.611,3.931-95.493-30.651-126.365-19.117-24.547,9.171-47.041,14.308-68.736,12.553.934-15.848,1.136-46.965-11.309-50.194-12.634-3.277-.241,32.061,6.647,49.707q-2.424-.31-4.837-.74c-4.46-8.795-11.81-20.3-19.88-20.7-7.6-.37,1.78,9.976,11.011,18.742-26.531-5.57-58,16-58.524,41.5h331.22a30.686,30.686,0,0,0-3.186-8.629C1332.563,1192.892,1349.265,1191.73,1343.071,1187.2Z" transform="translate(-828.811 -912.195)" fill="#30306d"/>
      <g id="Group_1939" data-name="Group 1939" transform="translate(120.952 269.868)">
        <g id="Group_1938" data-name="Group 1938">
          <rect id="Rectangle_959" data-name="Rectangle 959" width="87.297" height="19.712" transform="translate(26.917 0.001)" fill="#f90a8b"/>
          <rect id="Rectangle_960" data-name="Rectangle 960" width="87.297" height="19.713" fill="#f90a8b"/>
        </g>
      </g>
      <g id="Group_1942" data-name="Group 1942" transform="translate(249.466 198.72)">
        <g id="Group_1941" data-name="Group 1941" transform="translate(0 0)">
          <g id="Group_1940" data-name="Group 1940">
            <rect id="Rectangle_961" data-name="Rectangle 961" width="65.003" height="90.857" transform="translate(85.045 90.857) rotate(180)" fill="#f2c139"/>
            <rect id="Rectangle_962" data-name="Rectangle 962" width="65.003" height="90.857" transform="translate(65.003 90.857) rotate(180)" fill="#ffd561"/>
          </g>
        </g>
        <path id="Path_16591" data-name="Path 16591" d="M1692.823,1103.168l20.043,13.642v-13.642Z" transform="translate(-1627.821 -1103.168)" fill="#f2c139"/>
      </g>
      <g id="Group_1945" data-name="Group 1945" transform="translate(0 168.256)">
        <path id="Path_16592" data-name="Path 16592" d="M585.736,1187.492s-12.156,9.04-14.526,8.491,8.884-9.758,8.884-9.758c-4.235-2.036-17.4-.76-17.4-.76s-4.385,14.141-6.548,13.026,4.522-12.323,4.522-12.323c-4.717-.284-10.5,3.218-10.5,3.218-7.92,6.255.521,16.1.521,16.1a24.072,24.072,0,0,1-6.627,9.3,20.9,20.9,0,0,0-7.639,14.722l1.3.116s2.056-8.791,5.79-12.949c.145-.15.356-.367.617-.629.609-.563,1.035-.987,1.321-1.3,1.859-1.786,4.428-4.061,5.665-4.282a2.387,2.387,0,0,1-.053-.622c.017.2.034.4.053.622.424,4.977,10.079,9.323,16.019,10.217s4.1-1.548,2.057-5.168-8.524-5.24-10-6.908,1.577-1.671,5.157-.036,4.069,5.993,9.81,8.743,14.38-6.778,14.38-6.778c-4.575-.232-11.109-5.2-10.873-6.722s11.091,2.623,12.947,2.822,6.078-2.109,6.731-9.584S585.736,1187.492,585.736,1187.492Z" transform="translate(-471.926 -1136.902)" fill="#30306d"/>
        <g id="Group_1943" data-name="Group 1943" transform="translate(0 21.433)">
          <path id="Path_16593" data-name="Path 16593" d="M287.314,1096.16s13.427-7.519,7.161-17.723c0,0-5.012-6.266-10.383-7.877,0,0,2.864,15.217,0,15.575s-1.969-17.186-1.969-17.186-14.143-6.8-19.693-6.266c0,0,8.772,14.859,5.908,14.5s-12.711-15.4-12.711-15.4-14.5-2.685-16.828,5.908,1.432,12.89,3.58,13.427,15.933.358,15.575,2.148-9.667,4.655-14.859,3.044c0,0,5.729,14.143,13.248,13.427s9.846-5.371,14.5-5.729,8.056.9,5.729,2.148-10.2.411-13.964,3.607-6.8,5.165.179,6.6,19.513.537,22.02-4.833Z" transform="translate(-238.065 -1061.39)" fill="#ffd561"/>
          <path id="Path_16594" data-name="Path 16594" d="M317.576,1141.828A28.559,28.559,0,0,1,314,1128.759c-4.3-13.606-41.891-25.779-41.891-25.779,47.8,19.334,39.385,31.15,39.385,31.15,1.288.752,3.22,4.334,4.56,7.083.191.468.493,1.115.942,1.994h0c.182.4.327.723.428.95,2.461,6.158,1.157,16.792,1.157,16.792l1.492.4A24.8,24.8,0,0,0,317.576,1141.828Z" transform="translate(-264.746 -1093.99)" fill="#30306d"/>
        </g>
        <g id="Group_1944" data-name="Group 1944" transform="translate(58.975)">
          <path id="Path_16595" data-name="Path 16595" d="M522.522,1008.073s-17.7-9.911-9.44-23.362c0,0,6.608-8.26,13.687-10.383,0,0-3.776,20.059,0,20.531s2.6-22.655,2.6-22.655,18.643-8.967,25.958-8.259c0,0-11.563,19.587-7.788,19.115s16.755-20.294,16.755-20.294,19.115-3.54,22.183,7.788-1.888,16.991-4.72,17.7-21,.472-20.531,2.832,12.743,6.136,19.587,4.012c0,0-7.551,18.643-17.463,17.7s-12.979-7.08-19.115-7.552-10.619,1.18-7.551,2.832,13.451.541,18.407,4.754,8.968,6.809-.236,8.7-25.722.708-29.026-6.371Z" transform="translate(-510.887 -962.24)" fill="#f90a8b"/>
          <path id="Path_16596" data-name="Path 16596" d="M586.038,1017.064s-49.557,16.047-55.22,33.982a37.642,37.642,0,0,1-4.72,17.227s-7.643,11.605-3.285,25.733l1.966-.528s-1.719-14.017,1.526-22.134c.132-.3.324-.728.564-1.251h0c.592-1.159.991-2.012,1.242-2.629,1.767-3.624,4.313-8.347,6.011-9.337C534.121,1058.125,523.03,1042.55,586.038,1017.064Z" transform="translate(-519.182 -1005.213)" fill="#30306d"/>
        </g>
        <path id="Path_16597" data-name="Path 16597" d="M436.241,1389.008a34.669,34.669,0,0,0,34.669-34.669H401.572A34.669,34.669,0,0,0,436.241,1389.008Z" transform="translate(-366.228 -1269.581)" fill="#ffd561"/>
        <path id="Path_16598" data-name="Path 16598" d="M460.093,1388.742a34.693,34.693,0,0,1-38.975-34.4h8.613A34.675,34.675,0,0,0,460.093,1388.742Z" transform="translate(-381.548 -1269.58)" fill="#fcc01b"/>
        <path id="Path_16599" data-name="Path 16599" d="M465.375,1503.694H403.633a4.278,4.278,0,0,0-4.277,4.277h70.3A4.277,4.277,0,0,0,465.375,1503.694Z" transform="translate(-364.491 -1386.651)" fill="#ffd561"/>
        <path id="Path_16600" data-name="Path 16600" d="M467.033,1354.338h-70.2a.532.532,0,1,0,0,1.063h70.2a.532.532,0,0,0,0-1.063Z" transform="translate(-362.094 -1269.58)" fill="#fcc01b"/>
      </g>
      <g id="Group_1946" data-name="Group 1946" transform="translate(251.038 34.857)">
        <path id="Path_16601" data-name="Path 16601" d="M1748.581,491.531c-1-.153-4.033,2.647-4.033,2.647h0c-6.466.747-15.92,2.464-19.322,3.119-2.413.465-8.9-1.747-15.238-4.287-7.537-3.022-14.862-6.507-14.862-6.507-4.182-.213-8.932,7.417-.45,12.268,1.295.741,6.16,2,11.761,3.159h0c7.728,1.592,16.857,2.975,19.965,2.489,3.61-.565,13.828-4.3,19.906-7.165h0l.016-.008.068-.032a7.437,7.437,0,0,1,2.846-.775c1.139.068,3.675-2.016,3.752-2.573S1749.586,491.684,1748.581,491.531Z" transform="translate(-1627.152 -455.938)" fill="#ed975d"/>
        <path id="Path_16602" data-name="Path 16602" d="M1693.17,716.993l-3.56.723s-16.292-18.305-18.806-26.008c-1.345-4.116-9.946-5.9-18.935-8.219-7.823-2.023-15.941-4.46-19.817-9.215-8.332-10.217,5.233-22.771,5.233-22.771s14.423,8.572,26.866,17.428c8.7,6.189,16.427,12.516,17.592,16.152C1684.571,693.926,1690.57,710.735,1693.17,716.993Z" transform="translate(-1579.636 -585.274)" fill="#2b478b"/>
        <path id="Path_16603" data-name="Path 16603" d="M1896.659,956.077h2c.671-.105,1.166-.3,1.854-.389a1.857,1.857,0,0,1,1.621.389.272.272,0,0,1,.019.02h8.507c.214-.305.009-1.013-.193-1.534a1.21,1.21,0,0,0-.8-.728,9.177,9.177,0,0,1-4.309-1.968c-.916-.828-4.425-3.044-4.425-3.044l-.019,0c-.077,0-.444.114-2.04,1.462-.825.7-2.231-.982-2.231-.982a2,2,0,0,0-.461.625,2.111,2.111,0,0,0-.183,1.306,8.466,8.466,0,0,1-.61,3.155c-.2.584-.365,1-.365,1S1894.936,955.862,1896.659,956.077Z" transform="translate(-1787.89 -818.32)" fill="#233862"/>
        <path id="Path_16604" data-name="Path 16604" d="M1664.151,668.931l-12.282,14.558c-7.823-2.023-15.941-4.46-19.817-9.215-8.332-10.217,5.233-22.771,5.233-22.771S1651.708,660.075,1664.151,668.931Z" transform="translate(-1579.636 -585.274)" fill="#1e3d70"/>
        <path id="Path_16605" data-name="Path 16605" d="M1595.243,676.9s-.99,3.122-2.6,7.82c-2.038,5.94-5.074,14.4-8.367,22.24-.723,1.723-1.46,3.418-2.2,5.049-2.738,6.035-5.542,11.209-8.01,13.838-4.435,4.726-15.216,35.113-15.216,35.113l-2.687-.744s-3.745-25.947,9.523-40.711a.938.938,0,0,0,.269-.551.007.007,0,0,0,0-.006c.177-2.186.808-11.973,2.182-21.89.338-2.433.72-4.872,1.15-7.21.026-.15.055-.3.082-.445,2.019-10.808,3.952-15.615,6.446-18.033l18.344,5.222Z" transform="translate(-1521.889 -600.843)" fill="#2b478b"/>
        <path id="Path_16606" data-name="Path 16606" d="M1550.638,1076.753h2c.671-.106,1.166-.3,1.854-.39a1.857,1.857,0,0,1,1.621.39l.019.02h8.507c.214-.306.009-1.014-.193-1.535a1.21,1.21,0,0,0-.8-.728,9.174,9.174,0,0,1-4.309-1.968c-.916-.828-4.425-3.045-4.425-3.045l-.019,0c-.077,0-.444.114-2.04,1.462-.825.7-2.231-.982-2.231-.982a2.006,2.006,0,0,0-.461.625,2.115,2.115,0,0,0-.183,1.306,8.469,8.469,0,0,1-.609,3.154c-.2.584-.366,1-.366,1S1548.915,1076.537,1550.638,1076.753Z" transform="translate(-1516.667 -912.91)" fill="#233862"/>
        <path id="Path_16607" data-name="Path 16607" d="M1437.294,529.372s-3.069,7.508-6.608,14.818c-2.977,6.145-6.284,12.147-8.381,13.429-2.957,1.807-11.1,6.9-16.387,10.7,0,0-4.124-.031-4.764.758s-2.119,4.337-1.687,4.7,3.71.193,4.506-.624a7.431,7.431,0,0,1,2.626-1.343l.072-.022.016,0h0c6.421-1.975,16.493-6.091,19.542-8.1,2.625-1.733,8.445-8.9,13.087-15.282h0c3.365-4.625,6.111-8.835,6.57-10.254C1448.892,528.843,1440.243,526.4,1437.294,529.372Z" transform="translate(-1399.389 -488.607)" fill="#ffb27d"/>
        <path id="Path_16608" data-name="Path 16608" d="M1585.424,356.445a15.461,15.461,0,0,0-1.1-1.421,3.447,3.447,0,0,0,1.355-.2c1.077-.445,1.568-3.866,1.407-4.88s-1.658-3.948-3.5-4.241-3.753,1.757-3.753,1.757c.341-1.479,3.463-2.333,3.463-2.333-6.432,1.186-6.1,5.475-6.059,5.871-5.888-2.1-9.343,8.989-9.343,8.989l15.25,8.987s.04-2.449,1.5-2.291C1586.9,366.927,1588.793,361.355,1585.424,356.445Z" transform="translate(-1531.466 -345.124)" fill="#ffd561"/>
        <path id="Path_16609" data-name="Path 16609" d="M1613.165,460.882c-3.5,1.649-8.142-.726-8.118-.751.3-.3.195-1.2-.08-2.373a17.291,17.291,0,0,0-2.124-4.9c-.25-.425-.5-.85-.8-1.3l.4-.15,6.8-2.725s1.1,1.974,2.249,3.774c.975,1.5,2,2.849,2.449,2.8C1613.965,455.234,1618.464,458.333,1613.165,460.882Z" transform="translate(-1558.236 -426.299)" fill="#ffb27d"/>
        <path id="Path_16610" data-name="Path 16610" d="M1612.142,451.807c-.175,2.424-1,6.8-4.274,8.4a17.291,17.291,0,0,0-2.124-4.9Z" transform="translate(-1561.137 -428.746)" fill="#ed975d"/>
        <path id="Path_16611" data-name="Path 16611" d="M1576.554,418.757s8.851-3.489,6.594-8.967-2.635-9.618-8.382-7.622-5.976,4.536-5.667,6.547S1574.193,419.523,1576.554,418.757Z" transform="translate(-1532.345 -389.437)" fill="#ffb27d"/>
        <path id="Path_16612" data-name="Path 16612" d="M1575.9,406.469c4.086-.577,5.279-2.229,5.279-2.229a11.32,11.32,0,0,1-5.975-4.766s-4.593-1.549-8,1.04a2.3,2.3,0,0,0-.43.96c-.78-.256-1.953-.189-2.63,2.016-1.017,3.312,2.6,6.929,2.6,6.929.877-.248-.112-3.2-.251-4.775a7.457,7.457,0,0,1,.861-3.348c.433.562,4.745,5.98,10.008,6.2a22.2,22.2,0,0,1-5.311-2.852A6.793,6.793,0,0,0,1575.9,406.469Z" transform="translate(-1528.391 -387.365)" fill="#f2c139"/>
        <path id="Path_16613" data-name="Path 16613" d="M1592.1,492.69c-.075-.264-.155-.538-.24-.82a20.766,20.766,0,0,0,2.234-6.693,13.435,13.435,0,0,0-.425-6.549s-6.139-3.255-8.85-3.67a.152.152,0,0,0-.034-.01c-.032,0-.069-.008-.109-.01-2.736-.377-8.661.832-8.661.832a4.287,4.287,0,0,1-2.081,5.07c-3.224,2.028-6.667-.519-6.667-.519-.1.07-.214.147-.328.227h0s-8.483,5.6-9.245,6.876-4.024,7.612-4.024,7.612,1.034,5.317,12.494,5.761a26.475,26.475,0,0,1,1.9,6.372c.91,7.217-.146,12.91.914,17.123s20.182,1.81,23.644,1,2.684-4.508,2.95-8.1C1595.907,512.68,1593.229,496.672,1592.1,492.69Z" transform="translate(-1520.321 -446.82)" fill="#699dee"/>
        <path id="Path_16614" data-name="Path 16614" d="M1719.83,516.585a20.772,20.772,0,0,1-2.249,6.723c-.3-1.324-1.525-6.173-3.5-8.373A16.941,16.941,0,0,1,1719.83,516.585Z" transform="translate(-1646.056 -478.228)" fill="#4a82d3"/>
      </g>
      <g id="Group_1950" data-name="Group 1950" transform="translate(145.684 79.369)">
        <path id="Path_16615" data-name="Path 16615" d="M1380.388,719.349a60.323,60.323,0,0,1,4.329-4.827,13.154,13.154,0,0,1,4.324-1.225c.192.18.2.441-.216.809s-2.008,1.3-1.781,1.4,5.028-2.285,5.72-1.481-.392,4.122-2.242,5.713-7.371,2.269-7.719,2.491C1379.859,724.114,1380.388,719.349,1380.388,719.349Z" transform="translate(-1279.113 -678.204)" fill="#ed975d"/>
        <path id="Path_16616" data-name="Path 16616" d="M1090.393,653.838s5.117,6.071,11.635,3.532a19.747,19.747,0,0,0,1.422-5.891c0-.308.006-.606.011-.889.035-2.815.13-4.394.13-4.394h-.007c-.3-.124-9.962-4.092-9.954-3.763C1093.795,650.044,1090.393,653.838,1090.393,653.838Z" transform="translate(-1051.833 -622.661)" fill="#ffb27d"/>
        <path id="Path_16617" data-name="Path 16617" d="M1109.828,650.642a15.118,15.118,0,0,0,8.861,6.342c.035-2.815.13-4.394.13-4.394h-.007C1118.545,652.517,1109.551,650.132,1109.828,650.642Z" transform="translate(-1067.062 -629.055)" fill="#ed975d"/>
        <path id="Path_16618" data-name="Path 16618" d="M1110.022,593.6s-10.87,2.556-12.358-4.238-3.892-11.04,2.985-12.959,8.8.377,9.846,2.524S1112.811,592.757,1110.022,593.6Z" transform="translate(-1056.241 -570.354)" fill="#ffb27d"/>
        <path id="Path_16619" data-name="Path 16619" d="M1077.948,571.894c-.148.095-2.487.813-6.917-8.011a7.686,7.686,0,0,1,.452-7.029c1.621-2.648,7.368-4.73,12.143-5.636s5.922,1.781,7.046,4.482c1.18,2.835,4.589,5.168,4.589,5.168-4.118,2.3-9.077-.99-10.8-.448s-2.325,3.249-2.454,4.117-.327,1.589-2.488.814-.977,3.062-.631,3.8C1078.893,569.146,1079.187,571.1,1077.948,571.894Z" transform="translate(-1036.153 -551.039)" fill="#a9453d"/>
        <g id="Group_1947" data-name="Group 1947" transform="translate(0 83.457)">
          <path id="Path_16620" data-name="Path 16620" d="M925.8,1372.569h-6.582c-1.38,0-2.913-1.4-3.3-3.963s-3.22-3.963-3.834-6.061,2.531-5.053,2.531-5.053l.526-.684.547-.714,5.214,1.243s.129,1.258.209,2.861c.056,1.157.086,2.495.021,3.668-.154,2.8.773,5.811,3.226,6.355S925.8,1372.569,925.8,1372.569Z" transform="translate(-912.012 -1265.526)" fill="#2c3a64"/>
          <path id="Path_16621" data-name="Path 16621" d="M1120.19,1397.139h-17.448a1.541,1.541,0,0,1-.37-.111c-1.165-.6-.8-5.192-.66-6.611.027-.263.046-.417.046-.417s6.135-5.052,6.98-1.184c.027.121.057.239.09.356v0c1.065,3.62,5.826,5.263,8.576,5.722A3.024,3.024,0,0,1,1120.19,1397.139Z" transform="translate(-1060.576 -1290.032)" fill="#2c3a64"/>
          <path id="Path_16622" data-name="Path 16622" d="M1077.126,960.012s-.932,11.625-2.027,25.6c-1.488,18.983-3.279,42.3-3.455,46.717-.306,7.67-1.535,19.94-1.535,19.94s-2.913,2.915-8.742,1.686a200.712,200.712,0,0,1-6.679-36.046q-.035-.456-.069-.916c-1.38-18.865-3.527-58.59-3.527-58.59Z" transform="translate(-1021.028 -953.8)" fill="#ffd561"/>
          <path id="Path_16623" data-name="Path 16623" d="M1077.126,960.012s-.932,11.625-2.027,25.6l-20.411,32.3q-.035-.456-.069-.916c-1.38-18.865-3.527-58.59-3.527-58.59Z" transform="translate(-1021.028 -953.8)" fill="#f2c139"/>
          <path id="Path_16624" data-name="Path 16624" d="M973.318,944.709s-16.795,42.1-27.838,61.887-14.494,25.307-14.494,25.307-6.327-2.531-6.9-4.256c0,0,4.223-38.2,11.618-47.508,4.179-5.261,9.087-21.05,9.317-26.572s1.5-16.449,1.5-16.449Z" transform="translate(-921.475 -937.117)" fill="#ffd561"/>
        </g>
        <g id="Group_1948" data-name="Group 1948" transform="translate(5.162 31.85)">
          <path id="Path_16625" data-name="Path 16625" d="M944.119,932.271a56.892,56.892,0,0,1-.754,6.065,12.4,12.4,0,0,1-2.688,3.274c-.246-.036-.393-.233-.268-.742s.857-2.084.625-2.043-2.662,4.474-3.63,4.224-1.915-3.4-1.339-5.628,4.485-5.722,4.634-6.081C941.966,928.3,944.119,932.271,944.119,932.271Z" transform="translate(-935.89 -880.083)" fill="#ed975d"/>
          <path id="Path_16626" data-name="Path 16626" d="M957.236,751.9c1.859.6,2.157.462,2.157.462s9.047-16.472,9.964-17.98,19.21-18.472,19.21-18.472l-4.7-17.531s-20.806,26.943-23.053,30.81c-3.713,6.389-5.888,21.227-5.888,21.227A5.439,5.439,0,0,0,957.236,751.9Z" transform="translate(-950.81 -698.379)" fill="#30306d"/>
        </g>
        <path id="Path_16627" data-name="Path 16627" d="M1057.544,708.578c-.065,3.6-.274,7.647-.556,11.758q-.026.366-.052.731c-.181,2.546-.376,5.1-.6,7.588-.09,1-.186,1.984-.286,2.953l-.016.131c-.008.363-.052.756-.092,1.115-.917,9.322-1.879,16.688-2.057,16.8a1.047,1.047,0,0,1-.716.182c-2.445-.307-9.739.247-15.711-1.052a45.269,45.269,0,0,1-13.976-5.8c-.61-.361-2-1.316-1.888-2.03.111-.785.317-1.919.578-3.345a181.038,181.038,0,0,0,3-23.471q.155-2.79.451-5.5a83.509,83.509,0,0,1,2.435-13.14c2.047-7.373,5.056-13.018,8.831-15.227.493-.276,3.147,1.412,5.584,2.976a10.759,10.759,0,0,0,6.925,1.641l2.029,2.243a22.656,22.656,0,0,1,5.786,12.061q.081.6.138,1.274A79.237,79.237,0,0,1,1057.544,708.578Z" transform="translate(-997.901 -652.315)" fill="#30306d"/>
        <path id="Path_16628" data-name="Path 16628" d="M1127.284,766.907c-.065,3.6-.274,7.647-.557,11.758q-.026.366-.052.731c-13.964-8.741-16.116-24.736-16.116-24.736a38.2,38.2,0,0,1,16.534,4.14A79.27,79.27,0,0,1,1127.284,766.907Z" transform="translate(-1067.641 -710.644)" fill="#151555"/>
        <g id="Group_1949" data-name="Group 1949" transform="translate(41.675 35.443)">
          <path id="Path_16629" data-name="Path 16629" d="M1166.526,721.135c-.72-1.948-1.839-1.821-1.839-1.821s-20.763,5.174-22.626,5.4-22.359-8-22.359-8-8.067-3.62-11.846-.315c-3.284,2.873-3.433,6.512-2.665,9.568a9.136,9.136,0,0,0,7.722,6.807c8.362,1.065,25.045,3.07,28.541,2.583,7.783-1.084,25.416-11.263,25.416-11.263A6.534,6.534,0,0,0,1166.526,721.135Z" transform="translate(-1104.806 -715.002)" fill="#30306d"/>
        </g>
      </g>
      <g id="man" transform="translate(351.121 0)">
        <g id="Group_1951" data-name="Group 1951" transform="translate(50.356 74.427)">
          <path id="Path_16630" data-name="Path 16630" d="M2299.563,914.839s2.885,2.674,2.322,4.573-3.166,3.166-3.518,5.488-1.759,3.588-3.025,3.588H2289.3s-.932-1.634,1.32-2.126,3.1-3.221,2.959-5.754a45.342,45.342,0,0,1,.211-5.91l4.784-1.126Z" transform="translate(-2247.225 -830.264)" fill="#2c3a64"/>
          <path id="Path_16631" data-name="Path 16631" d="M2111.721,949.87a11.123,11.123,0,0,1-2.732.316h-13.654c.046-.406.364-1.854,2.6-2.214,2.523-.41,6.892-1.876,7.866-5.1.033-.1.061-.21.084-.316.773-3.447,6.4,1.055,6.4,1.055s.016.138.041.373C2112.456,945.249,2112.788,949.337,2111.721,949.87Z" transform="translate(-2095.335 -851.961)" fill="#2c3a64"/>
          <path id="Path_16632" data-name="Path 16632" d="M2110.44,549.182s.855,10.666,1.859,23.486c1.366,17.416,3.008,38.808,3.171,42.86.281,7.037,1.407,18.294,1.407,18.294s2.672,2.674,8.021,1.547a184.138,184.138,0,0,0,6.127-33.071c.021-.279.042-.559.063-.84,1.267-17.308,3.236-53.754,3.236-53.754Z" transform="translate(-2107.175 -543.484)" fill="#35488b"/>
          <path id="Path_16633" data-name="Path 16633" d="M2110.44,549.182s.855,10.666,1.859,23.486l18.727,29.63c.021-.279.042-.559.063-.84,1.267-17.308,3.236-53.754,3.236-53.754Z" transform="translate(-2107.175 -543.484)" fill="#2c3a64"/>
          <path id="Path_16634" data-name="Path 16634" d="M2128.5,535.142s15.408,38.626,25.54,56.778,13.3,23.218,13.3,23.218,5.8-2.322,6.332-3.905c0,0-3.874-35.044-10.659-43.586-3.834-4.827-8.337-19.313-8.548-24.379s-1.372-15.092-1.372-15.092Z" transform="translate(-2121.331 -528.176)" fill="#35488b"/>
        </g>
        <g id="Group_1952" data-name="Group 1952" transform="translate(0 29.64)">
          <path id="Path_16635" data-name="Path 16635" d="M1872.384,460.187a46.328,46.328,0,0,0-4.883-.907,10.069,10.069,0,0,0-3.2,1.277c-.033.2.084.362.509.39s1.825-.151,1.736.018-4.12.962-4.164,1.773,2.164,2.319,4.03,2.42,5.535-2.067,5.849-2.094C1874.931,462.831,1872.384,460.187,1872.384,460.187Z" transform="translate(-1862.384 -429.385)" fill="#ffb27d"/>
          <path id="Path_16636" data-name="Path 16636" d="M1898.649,352.855c-.6-1.909-.459-2.213-.459-2.213s16.942-9.161,18.493-10.09,19.059-19.561,19.059-19.561l17.933,4.936s-27.751,21.14-31.728,23.416c-6.572,3.762-21.792,5.891-21.792,5.891A5.572,5.572,0,0,1,1898.649,352.855Z" transform="translate(-1890.439 -320.991)" fill="#f2c139"/>
        </g>
        <path id="Path_16637" data-name="Path 16637" d="M2044.235,248.853s-6.287,11.062-12.432,12.505a16.793,16.793,0,0,1,1.752-6.257c-.613-.723-1.151-1.386-1.616-1.981a37.124,37.124,0,0,1-2.282-3.2l2.086-5.607,1.415-3.8a18.292,18.292,0,0,0,2.211,3.186A15.042,15.042,0,0,0,2044.235,248.853Z" transform="translate(-1993.498 -228.27)" fill="#ffb27d"/>
        <path id="Path_16638" data-name="Path 16638" d="M2035.368,255.247a11.668,11.668,0,0,1-3.429,9.42,37.12,37.12,0,0,1-2.282-3.2l2.086-5.607A11.913,11.913,0,0,1,2035.368,255.247Z" transform="translate(-1993.498 -239.817)" fill="#ed975d"/>
        <path id="Path_16639" data-name="Path 16639" d="M1993.168,222.134s9.394-3.662,7.023-9.476-2.755-10.2-8.852-8.111-6.351,4.783-6.032,6.916S1990.664,222.937,1993.168,222.134Z" transform="translate(-1958.667 -199.662)" fill="#ffb27d"/>
        <path id="Path_16640" data-name="Path 16640" d="M2082.05,330.255c-3.79,5.448-32.121,12.727-31.785,8.956a40.974,40.974,0,0,0,0-7.438q-.106-1.212-.3-2.57a59.261,59.261,0,0,0-6.243-18.7c-.286-.553-.583-1.109-.892-1.674A57.631,57.631,0,0,1,2038.9,300c-1.963-5.672-2.754-11.1-1.764-14.648a.476.476,0,0,1,.016-.05c5.922-2.738,8.217-13.358,8.217-13.358s20.2,3.627,31.522,30.558C2076.888,302.506,2085.347,325.513,2082.05,330.255Z" transform="translate(-1999.024 -252.909)" fill="#ffd561"/>
        <path id="Path_16641" data-name="Path 16641" d="M2075.685,414.51q-.106-1.212-.3-2.57a59.261,59.261,0,0,0-6.243-18.7c.654-3.969,1.558-7.269,2.551-8.755,4.03-6.039,6.377-6.983,6.377-6.983S2084.111,402.987,2075.685,414.51Z" transform="translate(-2024.447 -335.646)" fill="#f2c139"/>
        <g id="Group_1953" data-name="Group 1953" transform="translate(7.737 24.334)">
          <path id="Path_16642" data-name="Path 16642" d="M1909.828,520.655a60.367,60.367,0,0,0-6.455.606,13.146,13.146,0,0,0-3.558,2.746c.031.262.235.424.779.308s2.237-.842,2.186-.6-4.829,2.68-4.6,3.714,3.546,2.138,5.925,1.6,6.211-4.573,6.6-4.72C1913.972,523.065,1909.828,520.655,1909.828,520.655Z" transform="translate(-1898.177 -472.188)" fill="#ffb27d"/>
          <path id="Path_16643" data-name="Path 16643" d="M1945.048,347.03c-1.12-1.809-.313-2.634-.313-2.634s17.266-13.519,18.619-14.884,7.623-23.112,7.623-23.112,2.158-8.8,7.211-9.772c4.391-.843,7.426,1.329,9.411,3.876a9.364,9.364,0,0,1,.634,10.53c-4.408,7.428-13.3,22.174-15.9,24.693-5.78,5.606-25.118,13.442-25.118,13.442A6.7,6.7,0,0,1,1945.048,347.03Z" transform="translate(-1934.451 -296.443)" fill="#f2c139"/>
        </g>
        <path id="Path_16644" data-name="Path 16644" d="M1988.844,186.067c.066-.13.257-.269.724-.412a1.953,1.953,0,0,0-.946-.035,2.485,2.485,0,0,0-2.107-1.748,1.482,1.482,0,0,1,.944.87c-1.648-1.044-4.7-1.348-12.326,1.192-10.048,3.347-5.028,9.18-3.505,9.648s4.327-2.534,6.848-2.944,3.886,3.1,4.847,3.394.415-.508,1.421-1.308,1.585,1.083,1.563,2.405,1.941,2.576,1.941,2.576l1.151-2.112c1.151-2.111.838-9.778-.262-11.157C1989.04,186.314,1988.943,186.191,1988.844,186.067Z" transform="translate(-1945.971 -183.872)" fill="#2b478b"/>
      </g>
      <path id="Path_16645" data-name="Path 16645" d="M1228.358,1431.284v11.372l-26.918-11.372Z" transform="translate(-993.192 -1161.637)" fill="#db0d7c"/>
      <rect id="Rectangle_963" data-name="Rectangle 963" width="89.021" height="116.925" transform="translate(376.509 172.651)" fill="#db0d7c"/>
      <rect id="Rectangle_964" data-name="Rectangle 964" width="89.022" height="116.925" transform="translate(349.059 172.652)" fill="#f90a8b"/>
      <path id="Path_16646" data-name="Path 16646" d="M2292.118,982.575v17.484l-27.448-17.484Z" transform="translate(-1826.589 -809.923)" fill="#db0d7c"/>
    </g>
  </g>
</svg>
