<svg xmlns="http://www.w3.org/2000/svg" width="161.24" height="179.476" viewBox="0 0 161.24 179.476">
  <g id="Group_1889" data-name="Group 1889" transform="translate(-131 -86)">
    <g id="Group_519" data-name="Group 519" transform="translate(131.114 230.915)">
      <path id="Path_16016" data-name="Path 16016" d="M251.956,955.568a2.607,2.607,0,0,0-.778,1.99v3.547h5.969V966.6h-5.969V982.82H244.3V966.6h-3.113v-5.494H244.3v-3.85a7.973,7.973,0,0,1,2.4-6.078,8.851,8.851,0,0,1,6.339-2.269,10.569,10.569,0,0,1,4.281.908l-1.47,5.364a5.975,5.975,0,0,0-1.861-.346A2.843,2.843,0,0,0,251.956,955.568Zm19.724,26.561c-.057.027-.194.093-.41.193s-.376.172-.477.216l-.454.195c-.2.087-.368.152-.5.195l-.518.174a3.905,3.905,0,0,1-.606.151c-.188.029-.4.066-.627.108a6.049,6.049,0,0,1-.734.087c-.26.014-.521.021-.78.021a7.294,7.294,0,0,1-5.428-2.077,7.409,7.409,0,0,1-2.055-5.449v-26.43h6.876v25.911a1.76,1.76,0,0,0,.585,1.384,2.224,2.224,0,0,0,1.535.519,7.985,7.985,0,0,0,2.466-.606Z" transform="translate(-241.185 -948.908)" fill="#30306d"/>
      <path id="Path_16017" data-name="Path 16017" d="M283.473,960.286a11.543,11.543,0,0,1,0,16.482,11.97,11.97,0,0,1-8.434,3.2,12.166,12.166,0,0,1-8.544-3.2,11.49,11.49,0,0,1,0-16.482,12.166,12.166,0,0,1,8.544-3.2A11.969,11.969,0,0,1,283.473,960.286Zm-4.758,12.263a6,6,0,0,0-.021-8.088,5.019,5.019,0,0,0-3.655-1.579,5.186,5.186,0,0,0-3.765,1.579,5.942,5.942,0,0,0-.021,8.088,5.167,5.167,0,0,0,3.786,1.579A5,5,0,0,0,278.715,972.549Z" transform="translate(-231.957 -945.45)" fill="#30306d"/>
      <path id="Path_16018" data-name="Path 16018" d="M304.152,979.2H297.23v-2.077a8.788,8.788,0,0,1-6.66,2.726,7.966,7.966,0,0,1-6.121-2.487,9.239,9.239,0,0,1-2.314-6.553V957.481h6.876v11.852a4.531,4.531,0,0,0,1.039,3.093,3.392,3.392,0,0,0,2.682,1.19,3.992,3.992,0,0,0,3.308-1.493,7.247,7.247,0,0,0,1.189-4.563V957.481h6.922Z" transform="translate(-223.871 -945.283)" fill="#30306d"/>
      <path id="Path_16019" data-name="Path 16019" d="M317.1,957.442l-.3,6.92h-1.255q-7.483,0-7.484,8.133v6.791h-6.921V957.571h6.921v4.153a8.331,8.331,0,0,1,7.484-4.456A6.371,6.371,0,0,1,317.1,957.442Z" transform="translate(-215.837 -945.373)" fill="#30306d"/>
      <path id="Path_16020" data-name="Path 16020" d="M321.156,951.384a3.813,3.813,0,0,1,1.147,2.767,3.647,3.647,0,0,1-1.147,2.746,3.977,3.977,0,0,1-2.877,1.1,3.9,3.9,0,0,1-2.854-1.1,3.685,3.685,0,0,1-1.124-2.746,4.021,4.021,0,0,1,6.855-2.767Zm-6.337,30.884V960.553h6.922v21.715Z" transform="translate(-210.272 -948.356)" fill="#30306d"/>
      <path id="Path_16021" data-name="Path 16021" d="M329.013,972.337q.433,2.552,3.85,2.552a3.713,3.713,0,0,0,2.055-.5,1.456,1.456,0,0,0,.757-1.233q0-1.21-2.163-1.6l-4.412-.865q-6.315-1.167-6.314-6.314a6.421,6.421,0,0,1,2.6-5.344,10.7,10.7,0,0,1,6.747-2.01,11.95,11.95,0,0,1,6.6,1.687,7.148,7.148,0,0,1,3.265,4.542l-6.316,1.255a2.776,2.776,0,0,0-1.147-1.817,4,4,0,0,0-2.487-.735,2.893,2.893,0,0,0-1.881.5,1.52,1.52,0,0,0-.585,1.189q0,1.169,1.645,1.515l5.1,1.037a8.121,8.121,0,0,1,4.5,2.358,6.067,6.067,0,0,1,1.514,4.174,6.211,6.211,0,0,1-2.725,5.408,12.224,12.224,0,0,1-7.138,1.9,13.833,13.833,0,0,1-6.9-1.579,6.38,6.38,0,0,1-3.309-4.736Z" transform="translate(-206.905 -945.476)" fill="#30306d"/>
      <path id="Path_16022" data-name="Path 16022" d="M358.66,962.764a9.236,9.236,0,0,1,2.313,6.553v13.323H354.1V970.789a4.529,4.529,0,0,0-1.039-3.093,3.439,3.439,0,0,0-2.725-1.189,3.928,3.928,0,0,0-3.267,1.514,7.281,7.281,0,0,0-1.189,4.542v10.079h-6.921V949.333h6.921V963a8.935,8.935,0,0,1,6.706-2.725A7.911,7.911,0,0,1,358.66,962.764Z" transform="translate(-199.848 -948.728)" fill="#30306d"/>
    </g>
    <g id="Group_520" data-name="Group 520" transform="translate(131 86)">
      <path id="Path_16023" data-name="Path 16023" d="M278.283,892.768a109.827,109.827,0,0,1,10.361-27.88c-8.984-3.86-17.186-4.832-22.6-1.751-6.953,3.958-10.5,15.291-10.6,29.079A79.9,79.9,0,0,1,278.283,892.768Z" transform="translate(-235.041 -841.029)" fill="#ff6953"/>
      <path id="Path_16024" data-name="Path 16024" d="M273.73,930.717c-8.288-14.558-12.323-32.594-12.218-47.685-8.945,1.217-15.9,4.344-18.733,9.358-7.653,13.545,11.959,45.757,37.875,60.4,15.918,8.995,30.506,9.26,41.171,4.993C307.118,961.081,287.058,954.131,273.73,930.717Z" transform="translate(-241.105 -831.846)" fill="#ffd561"/>
      <path id="Path_16025" data-name="Path 16025" d="M315.779,957.946c-.111,0-.225.01-.336.01-18.176,0-39.672-17.923-39.672-52.7a98.507,98.507,0,0,1,2.511-21.5,79.9,79.9,0,0,0-22.835-.552c-.105,15.092,3.93,33.127,12.218,47.685,13.329,23.413,33.389,30.364,48.1,27.066l.021-.009Z" transform="translate(-235.042 -832.017)" fill="#ffa300"/>
      <path id="Path_16026" data-name="Path 16026" d="M350.309,892.146c-.107-13.757-3.658-25.058-10.6-29.009-5.525-3.144-13.96-2.064-23.167,2a109.913,109.913,0,0,1,10.22,27.589A79.873,79.873,0,0,1,350.309,892.146Z" transform="translate(-209.21 -841.029)" fill="#ff6953"/>
      <path id="Path_16027" data-name="Path 16027" d="M376.656,892.3c-2.8-4.963-9.651-8.076-18.466-9.318.118,15.106-3.918,33.174-12.218,47.755-13.322,23.4-33.363,30.354-48.068,27.072,10.638,4.146,25.1,3.8,40.878-5.108C364.7,938.059,384.309,905.846,376.656,892.3Z" transform="translate(-217.091 -831.866)" fill="#ffd561"/>
      <path id="Path_16028" data-name="Path 16028" d="M345.984,930.921c8.3-14.581,12.336-32.649,12.218-47.755a79.871,79.871,0,0,0-23.546.58,98.52,98.52,0,0,1,2.521,21.541c0,34.543-21.205,52.448-39.3,52.689l.041.016C312.621,961.275,332.662,954.319,345.984,930.921Z" transform="translate(-217.103 -832.05)" fill="#ffa300"/>
      <path id="Path_16029" data-name="Path 16029" d="M332.51,871.164c-7.683-14.244-17.729-24.108-26.931-24.108-9.149,0-19.134,9.747-26.8,23.859,8.935,3.839,18.64,10.543,27.15,18.976C314.259,881.637,323.732,875.041,332.51,871.164Z" transform="translate(-225.177 -847.056)" fill="#d040ff"/>
      <path id="Path_16030" data-name="Path 16030" d="M295.793,899.012A96.146,96.146,0,0,1,309.008,882.8c-8.51-8.433-18.215-15.137-27.15-18.976A109.828,109.828,0,0,0,271.5,891.7,93,93,0,0,1,295.793,899.012Z" transform="translate(-228.256 -839.966)" fill="#ff3db9"/>
      <path id="Path_16031" data-name="Path 16031" d="M294.321,894.368c.7-1.229,1.448-2.44,2.218-3.641a93.007,93.007,0,0,0-24.3-7.307,98.505,98.505,0,0,0-2.511,21.5c0,34.777,21.5,52.7,39.672,52.7.111,0,.225-.008.336-.01a27.92,27.92,0,0,1-7.672-2.932C287.506,946.389,278.461,922.228,294.321,894.368Z" transform="translate(-229.002 -831.682)" fill="#ff6953"/>
      <path id="Path_16032" data-name="Path 16032" d="M310.962,898.762a92.949,92.949,0,0,1,23.7-7.172A109.915,109.915,0,0,0,324.442,864c-8.777,3.877-18.25,10.473-26.581,18.727A96.1,96.1,0,0,1,310.962,898.762Z" transform="translate(-217.109 -839.892)" fill="#ff3db9"/>
      <path id="Path_16033" data-name="Path 16033" d="M301.586,901.148a65.688,65.688,0,0,1,7.733-5.112c1.8-1.019,3.668-1.959,5.57-2.838a96.1,96.1,0,0,0-13.1-16.035,96.143,96.143,0,0,0-13.215,16.211c1.851.859,3.665,1.78,5.419,2.772A65.667,65.667,0,0,1,301.586,901.148Z" transform="translate(-221.036 -834.327)" fill="#ff007d"/>
      <path id="Path_16034" data-name="Path 16034" d="M289.893,942.972c-6.815-12.062-4.132-32.066,14.836-46.642a65.681,65.681,0,0,0-7.593-5c-1.754-.992-3.568-1.912-5.419-2.772-.77,1.2-1.518,2.412-2.218,3.641-15.86,27.86-6.815,52.02,7.747,60.309a27.921,27.921,0,0,0,7.672,2.932h.007l.014-.006A29.314,29.314,0,0,1,289.893,942.972Z" transform="translate(-224.179 -829.51)" fill="#ff3d69"/>
      <path id="Path_16035" data-name="Path 16035" d="M313.29,894.381c15.86,27.86,6.814,52.02-7.747,60.31a27.869,27.869,0,0,1-7.667,2.931h0c18.1-.24,39.3-18.146,39.3-52.689a98.52,98.52,0,0,0-2.521-21.541,92.949,92.949,0,0,0-23.7,7.172C311.767,891.821,312.555,893.092,313.29,894.381Z" transform="translate(-217.103 -831.694)" fill="#ff6953"/>
      <path id="Path_16036" data-name="Path 16036" d="M297.719,896.383c19.1,14.586,21.809,34.658,14.976,46.75a29.225,29.225,0,0,1-14.767,12.353l.013,0a27.863,27.863,0,0,0,7.667-2.931c14.561-8.289,23.607-32.45,7.747-60.309-.734-1.289-1.522-2.56-2.333-3.817-1.9.879-3.768,1.82-5.57,2.839A65.683,65.683,0,0,0,297.719,896.383Z" transform="translate(-217.169 -829.562)" fill="#ff3d69"/>
      <path id="Path_16037" data-name="Path 16037" d="M318.115,940.77c6.832-12.092,4.119-32.164-14.976-46.75C284.171,908.6,281.488,928.6,288.3,940.662a29.313,29.313,0,0,0,15.045,12.461A29.225,29.225,0,0,0,318.115,940.77Z" transform="translate(-222.589 -827.2)" fill="#ff007d"/>
    </g>
  </g>
</svg>
