<svg xmlns="http://www.w3.org/2000/svg" width="201.869" height="66.85" viewBox="0 0 201.869 66.85">
  <g id="Group_2206" data-name="Group 2206" transform="translate(-18427.246 -578.766)">
    <g id="Group_2201" data-name="Group 2201" transform="translate(18443.672 592.586)">
      <path id="Path_16961" data-name="Path 16961" d="M35.058,24.7a8.387,8.387,0,0,1,4-7.039A8.588,8.588,0,0,0,32.286,14c-2.846-.3-5.606,1.7-7.058,1.7-1.478,0-3.711-1.673-6.117-1.624a9.011,9.011,0,0,0-7.583,4.625C8.25,24.384,10.7,32.727,13.836,37.316c1.572,2.246,3.408,4.757,5.812,4.667,2.351-.1,3.23-1.5,6.068-1.5,2.813,0,3.636,1.5,6.088,1.443,2.524-.041,4.113-2.257,5.63-4.525a18.572,18.572,0,0,0,2.574-5.244A8.108,8.108,0,0,1,35.058,24.7" transform="translate(-9.973 -4.588)" fill="#30306d"/>
      <path id="Path_16962" data-name="Path 16962" d="M24.305,14.638A8.263,8.263,0,0,0,26.2,8.72a8.408,8.408,0,0,0-5.439,2.814,7.855,7.855,0,0,0-1.939,5.7,6.948,6.948,0,0,0,5.488-2.594" transform="translate(-3.852 -8.24)" fill="#30306d"/>
      <path id="Path_16963" data-name="Path 16963" d="M47.778,33.441H39.754l-1.928,5.69h-3.4l7.6-21.053H45.56l7.6,21.053H49.7Zm-7.193-2.626h6.361l-3.136-9.235h-.086Z" transform="translate(7.032 -1.733)" fill="#30306d"/>
      <path id="Path_16964" data-name="Path 16964" d="M61.09,29.184c0,4.769-2.555,7.834-6.4,7.834a5.2,5.2,0,0,1-4.832-2.685H49.78v7.6H46.632V21.509h3.05v2.553h.058a5.438,5.438,0,0,1,4.886-2.714c3.9,0,6.464,3.079,6.464,7.836m-3.238,0c0-3.108-1.607-5.15-4.059-5.15-2.407,0-4.026,2.085-4.026,5.15,0,3.092,1.619,5.164,4.026,5.164,2.451,0,4.059-2.028,4.059-5.164" transform="translate(15.518 0.541)" fill="#30306d"/>
      <path id="Path_16965" data-name="Path 16965" d="M71.054,29.184c0,4.769-2.553,7.834-6.4,7.834a5.2,5.2,0,0,1-4.83-2.685h-.073v7.6H56.6V21.509h3.05v2.553H59.7a5.443,5.443,0,0,1,4.888-2.714c3.9,0,6.463,3.079,6.463,7.836m-3.238,0c0-3.108-1.605-5.15-4.057-5.15-2.407,0-4.026,2.085-4.026,5.15,0,3.092,1.619,5.164,4.026,5.164,2.451,0,4.057-2.028,4.057-5.164" transform="translate(22.446 0.541)" fill="#30306d"/>
      <path id="Path_16966" data-name="Path 16966" d="M73.034,33.409c.232,2.087,2.262,3.458,5.032,3.458,2.655,0,4.566-1.372,4.566-3.253,0-1.634-1.153-2.613-3.881-3.282l-2.726-.658c-3.869-.934-5.662-2.741-5.662-5.676,0-3.631,3.167-6.127,7.66-6.127,4.449,0,7.5,2.5,7.6,6.127h-3.18c-.192-2.1-1.928-3.369-4.464-3.369S73.7,21.913,73.7,23.779c0,1.489,1.109,2.365,3.821,3.035l2.321.57c4.318,1.022,6.115,2.757,6.115,5.837,0,3.938-3.14,6.4-8.129,6.4-4.669,0-7.821-2.409-8.022-6.217Z" transform="translate(31.634 -1.877)" fill="#30306d"/>
      <path id="Path_16967" data-name="Path 16967" d="M85.56,19.3v3.633h2.919v2.494H85.56v8.461c0,1.316.585,1.928,1.868,1.928a9.665,9.665,0,0,0,1.036-.073v2.48a8.617,8.617,0,0,1-1.75.146c-3.108,0-4.32-1.166-4.32-4.143v-8.8H80.162V22.933h2.233V19.3Z" transform="translate(38.832 -0.883)" fill="#30306d"/>
      <path id="Path_16968" data-name="Path 16968" d="M86.065,29.2c0-4.83,2.843-7.865,7.28-7.865s7.281,3.035,7.281,7.865-2.818,7.865-7.281,7.865-7.28-3.023-7.28-7.865m11.35,0c0-3.313-1.519-5.267-4.07-5.267s-4.07,1.97-4.07,5.267c0,3.326,1.517,5.266,4.07,5.266s4.07-1.939,4.07-5.266" transform="translate(42.938 0.529)" fill="#30306d"/>
      <path id="Path_16969" data-name="Path 16969" d="M96.186,21.508h3v2.613h.073a3.664,3.664,0,0,1,3.692-2.774,4.772,4.772,0,0,1,1.08.119v2.947a4.393,4.393,0,0,0-1.416-.19c-2.028,0-3.284,1.372-3.284,3.531v9.1h-3.15Z" transform="translate(49.974 0.54)" fill="#30306d"/>
      <path id="Path_16970" data-name="Path 16970" d="M115.063,32.361c-.424,2.787-3.136,4.7-6.608,4.7-4.465,0-7.237-2.992-7.237-7.792,0-4.815,2.787-7.938,7.105-7.938,4.247,0,6.917,2.918,6.917,7.571v1.08H104.4v.19a4,4,0,0,0,4.13,4.349,3.474,3.474,0,0,0,3.545-2.16Zm-10.65-4.581h7.673a3.69,3.69,0,0,0-3.764-3.9,3.886,3.886,0,0,0-3.909,3.9" transform="translate(53.472 0.529)" fill="#30306d"/>
      <path id="Path_16971" data-name="Path 16971" d="M39.326,8.731c3,0,4.759,1.843,4.759,5.027,0,3.231-1.746,5.089-4.759,5.089H35.671V8.731Zm-2.084,8.685H39.15c2.116,0,3.336-1.317,3.336-3.638,0-2.285-1.241-3.618-3.336-3.618H37.243Z" transform="translate(7.896 -8.233)" fill="#30306d"/>
      <path id="Path_16972" data-name="Path 16972" d="M41.681,14.068c0-2.462,1.375-3.96,3.6-3.96s3.6,1.5,3.6,3.96-1.368,3.967-3.6,3.967-3.6-1.494-3.6-3.967m5.651,0c0-1.655-.743-2.623-2.048-2.623s-2.046.968-2.046,2.623.737,2.628,2.046,2.628,2.048-.966,2.048-2.628" transform="translate(12.075 -7.275)" fill="#30306d"/>
      <path id="Path_16973" data-name="Path 16973" d="M55.053,17.829H53.49l-1.578-5.622h-.119l-1.572,5.622H48.673l-2.1-7.634H48.1l1.368,5.825h.114l1.568-5.825h1.446l1.57,5.825h.119l1.361-5.825h1.505Z" transform="translate(15.475 -7.215)" fill="#30306d"/>
      <path id="Path_16974" data-name="Path 16974" d="M53.854,10.255H55.3v1.212h.114a2.287,2.287,0,0,1,2.279-1.36c1.706,0,2.641,1.024,2.641,2.84V17.89H58.83V13.326c0-1.227-.534-1.836-1.648-1.836a1.749,1.749,0,0,0-1.821,1.934V17.89H53.854Z" transform="translate(20.54 -7.275)" fill="#30306d"/>
      <rect id="Rectangle_989" data-name="Rectangle 989" width="1.507" height="10.615" transform="translate(83.277)" fill="#30306d"/>
      <path id="Path_16975" data-name="Path 16975" d="M61.218,14.068c0-2.462,1.375-3.96,3.6-3.96s3.6,1.5,3.6,3.96-1.37,3.967-3.6,3.967-3.6-1.494-3.6-3.967m5.651,0c0-1.655-.743-2.623-2.048-2.623s-2.046.968-2.046,2.623.737,2.628,2.046,2.628,2.048-.966,2.048-2.628" transform="translate(25.659 -7.275)" fill="#30306d"/>
      <path id="Path_16976" data-name="Path 16976" d="M66.4,15.731c0-1.375,1.024-2.167,2.84-2.279l2.068-.12v-.658c0-.807-.532-1.263-1.563-1.263-.841,0-1.424.31-1.59.849h-1.46c.154-1.312,1.388-2.153,3.119-2.153,1.914,0,2.994.953,2.994,2.567V17.89H71.357V16.816h-.119a2.569,2.569,0,0,1-2.294,1.2A2.305,2.305,0,0,1,66.4,15.731m4.908-.653v-.637l-1.865.119c-1.051.07-1.528.427-1.528,1.1,0,.688.6,1.087,1.416,1.087a1.8,1.8,0,0,0,1.977-1.668" transform="translate(29.264 -7.275)" fill="#30306d"/>
      <path id="Path_16977" data-name="Path 16977" d="M71.348,15.23c0-2.412,1.239-3.94,3.169-3.94a2.515,2.515,0,0,1,2.341,1.339h.112V8.437h1.507V19.05H77.034V17.844h-.12a2.65,2.65,0,0,1-2.4,1.333c-1.941,0-3.169-1.529-3.169-3.947m1.556,0c0,1.619.763,2.594,2.039,2.594S77,16.836,77,15.237s-.793-2.594-2.055-2.594S72.9,13.625,72.9,15.23" transform="translate(32.703 -8.437)" fill="#30306d"/>
      <path id="Path_16978" data-name="Path 16978" d="M79.23,14.068c0-2.462,1.375-3.96,3.6-3.96s3.6,1.5,3.6,3.96-1.368,3.967-3.6,3.967-3.6-1.494-3.6-3.967m5.651,0c0-1.655-.743-2.623-2.048-2.623s-2.046.968-2.046,2.623.737,2.628,2.046,2.628,2.048-.966,2.048-2.628" transform="translate(38.185 -7.275)" fill="#30306d"/>
      <path id="Path_16979" data-name="Path 16979" d="M84.67,10.255h1.448v1.212h.114a2.289,2.289,0,0,1,2.28-1.36c1.7,0,2.64,1.024,2.64,2.84V17.89H89.646V13.326c0-1.227-.534-1.836-1.648-1.836a1.75,1.75,0,0,0-1.821,1.934V17.89H84.67Z" transform="translate(41.967 -7.275)" fill="#30306d"/>
      <path id="Path_16980" data-name="Path 16980" d="M94.63,9.074V11.01h1.655v1.268H94.63V16.2c0,.8.329,1.149,1.08,1.149a5.127,5.127,0,0,0,.575-.036v1.256a5.041,5.041,0,0,1-.821.076c-1.675,0-2.343-.59-2.343-2.062V12.278h-1.21V11.01h1.21V9.074Z" transform="translate(47.001 -7.994)" fill="#30306d"/>
      <path id="Path_16981" data-name="Path 16981" d="M95.7,8.437H97.2v4.206h.119a2.352,2.352,0,0,1,2.328-1.366c1.626,0,2.629,1.031,2.629,2.846v4.928h-1.509V14.494c0-1.219-.568-1.838-1.633-1.838a1.783,1.783,0,0,0-1.921,1.936v4.459H95.7Z" transform="translate(49.64 -8.437)" fill="#30306d"/>
      <path id="Path_16982" data-name="Path 16982" d="M107.564,15.828a3.1,3.1,0,0,1-3.308,2.209c-2.187,0-3.526-1.5-3.526-3.94s1.366-3.989,3.519-3.989c2.124,0,3.406,1.451,3.406,3.848v.526h-5.391v.085a2.017,2.017,0,0,0,2.033,2.187,1.832,1.832,0,0,0,1.817-.926Zm-5.3-2.46h3.855a1.842,1.842,0,0,0-1.878-1.978,1.954,1.954,0,0,0-1.977,1.978" transform="translate(53.133 -7.275)" fill="#30306d"/>
    </g>
    <path id="Path_16983" data-name="Path 16983" d="M191.763,64.85H8.106A8.13,8.13,0,0,1,0,56.744V8.106A8.13,8.13,0,0,1,8.106,0H191.763a8.13,8.13,0,0,1,8.106,8.106V56.744a8.13,8.13,0,0,1-8.106,8.106" transform="translate(18428.246 579.766)" fill="none" stroke="#30306d" stroke-width="2"/>
  </g>
</svg>
