<svg xmlns="http://www.w3.org/2000/svg" width="294.19" height="336.354" viewBox="0 0 294.19 336.354">
  <g id="Group_1971" data-name="Group 1971" transform="translate(-1025.254 -90.756)">
    <g id="Group_1956" data-name="Group 1956">
      <path id="Path_16647" data-name="Path 16647" d="M1295.155,163.85l16.06-73.093-18.294,58.1Z" fill="#b50062"/>
      <path id="Path_16648" data-name="Path 16648" d="M1262.089,146.214l49.126-55.457,8.228,60.308Z" fill="#f90a8b"/>
      <path id="Path_16649" data-name="Path 16649" d="M1311.215,90.756l-30.4,57.041,14.344,16.052-2.234-14.99Z" fill="#dd0378"/>
    </g>
    <g id="Group_1957" data-name="Group 1957">
      <path id="Path_16650" data-name="Path 16650" d="M1211.957,222.671l42.968-61.272-39.257,46.578Z" fill="#e3af20"/>
      <path id="Path_16651" data-name="Path 16651" d="M1188.232,193.662l66.693-32.263-15.63,58.826Z" fill="#ffd561"/>
      <path id="Path_16652" data-name="Path 16652" d="M1254.925,161.4,1204.9,202.333l7.056,20.338,3.711-14.694Z" fill="#faca43"/>
    </g>
    <g id="Group_1958" data-name="Group 1958">
      <path id="Path_16653" data-name="Path 16653" d="M1200.739,315.331l35.971-65.625-33.9,50.611Z" fill="#e3af20"/>
      <path id="Path_16654" data-name="Path 16654" d="M1173.968,289.107l62.741-39.4-9.067,60.188Z" fill="#ffd561"/>
      <path id="Path_16655" data-name="Path 16655" d="M1236.71,249.706l-45.221,46.186,9.25,19.439,2.073-15.013Z" fill="#fdca5c"/>
    </g>
    <g id="Group_1959" data-name="Group 1959">
      <path id="Path_16656" data-name="Path 16656" d="M1160.439,404.85l40.76-62.763-37.574,47.946Z" fill="#e3af20"/>
      <path id="Path_16657" data-name="Path 16657" d="M1135.7,376.7l65.5-34.617-13.525,59.345Z" fill="#ffd561"/>
      <path id="Path_16658" data-name="Path 16658" d="M1201.2,342.087l-48.536,42.689,7.776,20.074,3.185-14.817Z" fill="#fdca5c"/>
    </g>
    <g id="Group_1960" data-name="Group 1960">
      <path id="Path_16659" data-name="Path 16659" d="M1286.268,245.511l18.5-72.514-20.229,57.458Z" fill="#e3af20"/>
      <path id="Path_16660" data-name="Path 16660" d="M1253.811,226.778,1304.767,173l6.2,60.55Z" fill="#ffd561"/>
      <path id="Path_16661" data-name="Path 16661" d="M1304.767,173l-32.3,55.991,13.8,16.523-1.73-15.057Z" fill="#fdca5c"/>
    </g>
    <g id="Group_1961" data-name="Group 1961">
      <path id="Path_16662" data-name="Path 16662" d="M1277.146,334.073l18.088-72.618-19.9,57.571Z" fill="#e3af20"/>
      <path id="Path_16663" data-name="Path 16663" d="M1244.584,315.524l50.65-54.069,6.547,60.514Z" fill="#ffd561"/>
      <path id="Path_16664" data-name="Path 16664" d="M1295.234,261.455l-31.979,56.173,13.892,16.445-1.816-15.047Z" fill="#fdca5c"/>
    </g>
    <g id="Group_1962" data-name="Group 1962">
      <path id="Path_16665" data-name="Path 16665" d="M1227.629,427.11l31.72-67.782L1228.742,412Z" fill="#e3af20"/>
      <path id="Path_16666" data-name="Path 16666" d="M1199.243,402.643l60.106-43.315-5.217,60.643Z" fill="#ffd561"/>
      <path id="Path_16667" data-name="Path 16667" d="M1259.349,359.328,1217.161,408.3l10.468,18.81L1228.742,412Z" fill="#fdca5c"/>
    </g>
    <g id="Group_1963" data-name="Group 1963">
      <path id="Path_16668" data-name="Path 16668" d="M1092.267,364.866l54.879-50.881-48.164,37.293Z" fill="#e3af20"/>
      <path id="Path_16669" data-name="Path 16669" d="M1075.164,331.522l71.982-17.536-27.636,54.232Z" fill="#ffd561"/>
      <path id="Path_16670" data-name="Path 16670" d="M1147.146,313.985,1089.639,343.5l2.627,21.366,6.715-13.587Z" fill="#fdca5c"/>
    </g>
    <g id="Group_1964" data-name="Group 1964">
      <path id="Path_16671" data-name="Path 16671" d="M1134.779,282.542l51.3-54.486-45.524,40.475Z" fill="#e3af20"/>
      <path id="Path_16672" data-name="Path 16672" d="M1115.454,250.434l70.626-22.378-23.894,55.981Z" fill="#ffd561"/>
      <path id="Path_16673" data-name="Path 16673" d="M1186.08,228.056,1130.708,261.4l4.071,21.139,5.777-14.011Z" fill="#fdca5c"/>
    </g>
    <g id="Group_1965" data-name="Group 1965">
      <path id="Path_16674" data-name="Path 16674" d="M1038.739,310.077l59.945-44.8-51.833,32Z" fill="#e3af20"/>
      <path id="Path_16675" data-name="Path 16675" d="M1025.254,275.112l73.431-9.836-33.209,51.01Z" fill="#ffd561"/>
      <path id="Path_16676" data-name="Path 16676" d="M1098.685,265.276l-60.3,23.276.356,21.524,8.112-12.8Z" fill="#fdca5c"/>
    </g>
  </g>
</svg>
