<svg xmlns="http://www.w3.org/2000/svg" width="220.869" height="66.85" viewBox="0 0 220.869 66.85">
  <g id="Group_2205" data-name="Group 2205" transform="translate(-18206 -578.766)">
    <path id="Path_16936" data-name="Path 16936" d="M210.763,64.85H8.106A8.13,8.13,0,0,1,0,56.744V8.106A8.13,8.13,0,0,1,8.106,0H210.763a8.13,8.13,0,0,1,8.106,8.106V56.744a8.13,8.13,0,0,1-8.106,8.106" transform="translate(18207 579.766)" fill="none" stroke="#30306d" stroke-width="2"/>
    <g id="Group_2199" data-name="Group 2199">
      <path id="Path_16938" data-name="Path 16938" d="M51.187,12.342a4.391,4.391,0,0,1-1.208,3.247,4.717,4.717,0,0,1-3.573,1.44,5.011,5.011,0,0,1-5.053-5.081,5.011,5.011,0,0,1,5.053-5.083,5,5,0,0,1,2,.409A4.022,4.022,0,0,1,49.924,8.36l-.856.856a3.286,3.286,0,0,0-2.662-1.154,3.759,3.759,0,0,0-3.778,3.886,3.825,3.825,0,0,0,6.495,2.8,3.05,3.05,0,0,0,.814-1.97H46.405V11.607h4.713a4.169,4.169,0,0,1,.068.734" transform="translate(18232.689 584.031)" fill="#30306d" stroke="rgba(0,0,0,0)" stroke-width="1"/>
      <path id="Path_16939" data-name="Path 16939" d="M51.187,12.342a4.391,4.391,0,0,1-1.208,3.247,4.717,4.717,0,0,1-3.573,1.44,5.011,5.011,0,0,1-5.053-5.081,5.011,5.011,0,0,1,5.053-5.083,5,5,0,0,1,2,.409A4.022,4.022,0,0,1,49.924,8.36l-.856.856a3.286,3.286,0,0,0-2.662-1.154,3.759,3.759,0,0,0-3.778,3.886,3.825,3.825,0,0,0,6.495,2.8,3.05,3.05,0,0,0,.814-1.97H46.405V11.607h4.713A4.169,4.169,0,0,1,51.187,12.342Z" transform="translate(18232.689 584.031)" fill="#30306d"/>
      <path id="Path_16940" data-name="Path 16940" d="M54.2,8.2H49.775v3.084h3.995v1.169H49.775v3.084H54.2v1.2H48.525V7H54.2Z" transform="translate(18237.146 584.115)" fill="#30306d"/>
      <path id="Path_16941" data-name="Path 16941" d="M54.2,8.2H49.775v3.084h3.995v1.169H49.775v3.084H54.2v1.2H48.525V7H54.2Z" transform="translate(18237.146 584.115)" fill="#30306d" stroke="#fff" stroke-width="0.2"/>
      <path id="Path_16942" data-name="Path 16942" d="M56.8,16.728h-1.25V8.195H52.832V7h6.684V8.195H56.8Z" transform="translate(18239.822 584.115)" fill="#30306d" stroke="rgba(0,0,0,0)" stroke-width="1"/>
      <path id="Path_16943" data-name="Path 16943" d="M56.8,16.728h-1.25V8.195H52.832V7h6.684V8.195H56.8Z" transform="translate(18239.822 584.115)" fill="#30306d"/>
      <rect id="Rectangle_976" data-name="Rectangle 976" width="1.25" height="9.728" transform="translate(18304.174 591.115)" fill="#30306d" stroke="rgba(0,0,0,0)" stroke-width="1"/>
      <rect id="Rectangle_977" data-name="Rectangle 977" width="1.25" height="9.728" transform="translate(18304.174 591.115)" fill="#30306d"/>
      <path id="Path_16944" data-name="Path 16944" d="M65.649,16.728H64.4V8.195H61.681V7h6.684V8.195H65.649Z" transform="translate(18245.32 584.115)" fill="#30306d"/>
      <path id="Path_16945" data-name="Path 16945" d="M65.649,16.728H64.4V8.195H61.681V7h6.684V8.195H65.649Z" transform="translate(18245.32 584.115)" fill="#30306d" stroke="#fff" stroke-width="0.2"/>
      <path id="Path_16946" data-name="Path 16946" d="M76.891,15.553a5.047,5.047,0,0,1-7.132,0,4.968,4.968,0,0,1-1.433-3.606A4.974,4.974,0,0,1,69.759,8.34a5.035,5.035,0,0,1,7.125.006,4.973,4.973,0,0,1,1.44,3.6,4.974,4.974,0,0,1-1.433,3.606m-6.209-.814a3.742,3.742,0,0,0,5.285,0,3.81,3.81,0,0,0,1.081-2.792,3.807,3.807,0,0,0-1.081-2.792,3.738,3.738,0,0,0-5.285,0,3.812,3.812,0,0,0-1.08,2.792,3.815,3.815,0,0,0,1.08,2.792" transform="translate(18249.447 584.031)" fill="#30306d" stroke="rgba(0,0,0,0)" stroke-width="1"/>
      <path id="Path_16947" data-name="Path 16947" d="M76.891,15.553a5.047,5.047,0,0,1-7.132,0,4.968,4.968,0,0,1-1.433-3.606A4.974,4.974,0,0,1,69.759,8.34a5.035,5.035,0,0,1,7.125.006,4.973,4.973,0,0,1,1.44,3.6A4.974,4.974,0,0,1,76.891,15.553Zm-6.209-.814a3.742,3.742,0,0,0,5.285,0,3.81,3.81,0,0,0,1.081-2.792,3.807,3.807,0,0,0-1.081-2.792,3.738,3.738,0,0,0-5.285,0,3.812,3.812,0,0,0-1.08,2.792A3.815,3.815,0,0,0,70.682,14.739Z" transform="translate(18249.447 584.031)" fill="#30306d"/>
      <path id="Path_16948" data-name="Path 16948" d="M75.575,16.728V7H77.1l4.728,7.568h.053l-.053-1.876V7h1.25v9.728H81.77L76.823,8.793H76.77l.053,1.876v6.059Z" transform="translate(18253.951 584.115)" fill="#30306d" stroke="rgba(0,0,0,0)" stroke-width="1"/>
      <path id="Path_16949" data-name="Path 16949" d="M75.575,16.728V7H77.1l4.728,7.568h.053l-.053-1.876V7h1.25v9.728H81.77L76.823,8.793H76.77l.053,1.876v6.059Z" transform="translate(18253.951 584.115)" fill="#30306d"/>
      <path id="Path_16950" data-name="Path 16950" d="M84.968,24.673a6.9,6.9,0,1,0,6.921,6.9,6.8,6.8,0,0,0-6.921-6.9m0,11.075a3.989,3.989,0,0,1-3.893-4.178,3.9,3.9,0,1,1,7.784,0,3.988,3.988,0,0,1-3.891,4.178m-15.1-11.075a6.9,6.9,0,1,0,6.923,6.9,6.8,6.8,0,0,0-6.923-6.9m0,11.075a3.989,3.989,0,0,1-3.891-4.178,3.9,3.9,0,1,1,7.784,0,3.989,3.989,0,0,1-3.893,4.178m-17.96-8.957v2.925h7A6.1,6.1,0,0,1,57.314,33.4a7.167,7.167,0,0,1-5.407,2.142,7.784,7.784,0,0,1,0-15.566,7.457,7.457,0,0,1,5.276,2.088L59.247,20a10.206,10.206,0,0,0-7.339-2.952A10.859,10.859,0,0,0,41.042,27.755a10.859,10.859,0,0,0,10.866,10.71,9.792,9.792,0,0,0,7.469-3,9.666,9.666,0,0,0,2.534-6.843,9.45,9.45,0,0,0-.157-1.827Zm73.456,2.271a6.41,6.41,0,0,0-5.9-4.389,6.553,6.553,0,0,0-6.5,6.9,6.747,6.747,0,0,0,6.842,6.9,6.861,6.861,0,0,0,5.747-3.056L123.2,33.842a3.94,3.94,0,0,1-3.4,1.907,3.509,3.509,0,0,1-3.343-2.088l9.22-3.815Zm-9.4,2.3a3.782,3.782,0,0,1,3.6-4.022,2.667,2.667,0,0,1,2.56,1.462Zm-7.5,6.686h3.03V17.778h-3.03ZM103.5,26.215h-.1a4.78,4.78,0,0,0-3.63-1.542,6.9,6.9,0,0,0,0,13.792A4.7,4.7,0,0,0,103.4,36.9h.1v.992c0,2.639-1.409,4.048-3.682,4.048a3.815,3.815,0,0,1-3.474-2.455l-2.638,1.1a6.571,6.571,0,0,0,6.112,4.074c3.552,0,6.556-2.09,6.556-7.182V25.092H103.5Zm-3.473,9.533A3.956,3.956,0,0,1,96.189,31.6a3.988,3.988,0,0,1,3.839-4.206c2.064,0,3.682,1.777,3.682,4.206a3.852,3.852,0,0,1-3.682,4.152M139.556,17.78h-7.249V38.047h3.024V30.369h4.225a6.423,6.423,0,0,0,6.649-6.3,6.422,6.422,0,0,0-6.649-6.294m.078,9.768h-4.3V20.6h4.3a3.475,3.475,0,1,1,0,6.949m18.7-2.91a5.683,5.683,0,0,0-5.4,3.1l2.686,1.122a2.866,2.866,0,0,1,2.764-1.487c1.564,0,3.155.939,3.181,2.607v.209a6.7,6.7,0,0,0-3.155-.781c-2.894,0-5.841,1.59-5.841,4.562,0,2.712,2.374,4.458,5.032,4.458a4.268,4.268,0,0,0,3.86-1.981h.1v1.565h2.92V30.242c0-3.6-2.685-5.6-6.153-5.6m-.365,11.107c-.992,0-2.374-.5-2.374-1.722,0-1.565,1.72-2.163,3.207-2.163a5.4,5.4,0,0,1,2.764.678,3.667,3.667,0,0,1-3.6,3.207M175.121,25.08l-3.468,8.787h-.1l-3.6-8.787h-3.259l5.4,12.281-3.077,6.832h3.155l8.319-19.113ZM147.873,38.047H150.9V17.78h-3.025Z" transform="translate(18232.498 590.356)" fill="#30306d"/>
    </g>
    <path id="logo" d="M0,37.264V2.74A3.047,3.047,0,0,1,1.712,0l19.97,20L1.7,40A3.046,3.046,0,0,1,0,37.264ZM23.4,21.719l4.614,4.621L6.182,38.963ZM25.124,20,30.2,14.918,34.8,17.582a3.048,3.048,0,0,1,.033,4.815L30.2,25.079ZM6.195,1.042l21.82,12.614L23.4,18.273Z" transform="translate(18223 592)" fill="#30306d"/>
  </g>
</svg>
