<svg xmlns="http://www.w3.org/2000/svg" xmlns:xlink="http://www.w3.org/1999/xlink" width="545.637" height="533.18" viewBox="0 0 545.637 533.18">
  <defs>
    <linearGradient id="linear-gradient" y1="0.5" x2="1" y2="0.5" gradientUnits="objectBoundingBox">
      <stop offset="0" stop-color="#4f52ff"/>
      <stop offset="1" stop-color="#4042e2"/>
    </linearGradient>
    <linearGradient id="linear-gradient-2" y1="0.5" x2="1" y2="0.5" gradientUnits="objectBoundingBox">
      <stop offset="0" stop-color="#09005d"/>
      <stop offset="1" stop-color="#1a0f91"/>
    </linearGradient>
    <linearGradient id="linear-gradient-3" y1="0.5" x2="1" y2="0.5" gradientUnits="objectBoundingBox">
      <stop offset="0" stop-color="#febbba"/>
      <stop offset="1" stop-color="#ff928e"/>
    </linearGradient>
    <linearGradient id="linear-gradient-7" x1="-0.068" y1="-4.845" x2="0.219" y2="-2.143" xlink:href="#linear-gradient-2"/>
    <linearGradient id="linear-gradient-8" x1="0.534" y1="0.308" x2="-0.337" y2="1.354" xlink:href="#linear-gradient-3"/>
    <linearGradient id="linear-gradient-9" x1="8.069" y1="-5.487" x2="-0.44" y2="1.244" gradientUnits="objectBoundingBox">
      <stop offset="0" stop-color="#ff928e"/>
      <stop offset="1" stop-color="#fe7062"/>
    </linearGradient>
    <linearGradient id="linear-gradient-10" x1="0.301" y1="1.478" x2="0.574" y2="0.434" xlink:href="#linear-gradient-3"/>
    <linearGradient id="linear-gradient-11" x1="0.821" y1="0.35" x2="-0.291" y2="1.106" xlink:href="#linear-gradient-3"/>
    <linearGradient id="linear-gradient-12" x1="2.74" y1="-0.685" x2="-1.811" y2="1.784" xlink:href="#linear-gradient-3"/>
    <linearGradient id="linear-gradient-13" x1="0.597" y1="0.137" x2="1.233" y2="-4.199" xlink:href="#linear-gradient-3"/>
    <linearGradient id="linear-gradient-14" x1="-14.713" y1="-6.476" x2="-15.453" y2="-4.013" xlink:href="#linear-gradient-2"/>
    <linearGradient id="linear-gradient-15" x1="-12.256" y1="0.133" x2="-12.654" y2="0.802" xlink:href="#linear-gradient-2"/>
  </defs>
  <g id="Group_1937" data-name="Group 1937" transform="translate(89.392 -113.269)">
    <g id="Illustration" transform="translate(-89.392 113.269)">
      <g id="Group_1933" data-name="Group 1933">
        <path id="Path_16542" data-name="Path 16542" d="M929.876,906.614c-10.841,11.413-21.1,18.774-29.2,24.589-95.268,68.356-208,48.431-231.954,43.564-35.378-7.185-103.764-21.075-153.2-79.217-74.8-87.964-63.153-226.549-5.133-318.03,10.613-16.734,66.673-109.609,180.615-124.5,68.957-9.014,149.338,9.166,207.547,57.934C1020.73,613.32,1012.032,820.123,929.876,906.614Z" transform="translate(-460.171 -450.791)" fill="#f4f4f4"/>
        <g id="Group_1909" data-name="Group 1909" transform="translate(119.734 0.257)">
          <path id="Path_16543" data-name="Path 16543" d="M1088.213,452.3a5.38,5.38,0,0,0-6.611,5.465c.375,9.137.6,30.062-.5,77.848-1.872,81.623,47.422,93.4,72.88,109.8s21.506,73.12,21.506,73.12,48.239-115.812,31.222-181.841C1192.359,480.995,1112.77,458.1,1088.213,452.3Z" transform="translate(-1081.054 -452.152)" fill="#ffd561"/>
          <path id="Path_16544" data-name="Path 16544" d="M1206.26,578.523s.683.668,1.942,1.966,3.068,3.2,5.286,5.714c1.1,1.261,2.35,2.637,3.645,4.187s2.733,3.2,4.193,5.017c1.479,1.806,3.051,3.73,4.647,5.807l2.457,3.191,2.5,3.4,2.6,3.545,2.616,3.744,2.7,3.878,2.688,4.063c.9,1.377,1.841,2.76,2.753,4.184l2.715,4.355c.9,1.476,1.839,2.954,2.737,4.474l2.673,4.631c.893,1.561,1.82,3.12,2.7,4.718l2.611,4.86c.874,1.632,1.762,3.27,2.622,4.932l2.488,5.065,2.508,5.106,2.348,5.22,2.353,5.243.295.656.087.2.067.166.133.332.534,1.327,1.068,2.654a185.872,185.872,0,0,1,7,21.967,206.229,206.229,0,0,1,4.2,21.88c1,7.156,1.532,14.122,1.821,20.727s.271,12.86.081,18.623-.6,11.035-1.069,15.693-1.023,8.706-1.539,12.029-1.028,5.92-1.388,7.692c-.192.886-.338,1.565-.437,2.023l-.165.706a1.376,1.376,0,0,1-2.692-.571l.007-.038.128-.663.349-1.984c.3-1.744.672-4.319,1.1-7.6s.849-7.29,1.191-11.895.582-9.809.7-15.486c.1-5.678.019-11.832-.352-18.322s-1.052-13.313-2.043-20.324a206.017,206.017,0,0,0-4.216-21.4,181.691,181.691,0,0,0-6.779-21.407l-1.064-2.656-.532-1.328-.133-.332-.067-.166-.055-.127-.285-.65-2.279-5.194-2.273-5.173-2.435-5.064-2.415-5.025-2.536-4.9-2.5-4.846c-.849-1.594-1.742-3.149-2.6-4.707l-2.571-4.623c-.865-1.518-1.77-2.994-2.638-4.469l-2.573-4.381c-.865-1.432-1.756-2.825-2.615-4.212L1236,620.852l-2.575-3.911-2.495-3.778-2.489-3.58-2.393-3.431-2.352-3.228c-1.5-2.122-2.981-4.091-4.376-5.94-1.376-1.864-2.725-3.561-3.959-5.14s-2.4-3-3.448-4.3c-2.112-2.569-3.8-4.564-4.966-5.907s-1.811-2.034-1.811-2.034a.781.781,0,0,1,1.118-1.09Z" transform="translate(-1181.517 -554.456)" fill="#fff"/>
        </g>
        <g id="Group_1910" data-name="Group 1910" transform="translate(0 93.094)">
          <path id="Path_16545" data-name="Path 16545" d="M688.649,1273.778c5.278,2.639-49.633-67.532-66.147-177.2-7.782-51.676-7.383-116.342-36.588-141.492-24.307-20.932-107.674-8.49-134.957-3.727A4.086,4.086,0,0,0,449,958.5c12.979,11.075,40.725,37.175,47.8,63.316,9.33,34.455,41.844,56.579,71.06,62.726s45.449,12.018,59.338,58.926S673.652,1266.278,688.649,1273.778Z" transform="translate(-447.563 -943.335)" fill="#f90a8b"/>
          <path id="Path_16546" data-name="Path 16546" d="M665.659,1065.932s.83.024,2.364.141,3.786.318,6.632.714,6.291.959,10.207,1.8,8.307,1.931,13.006,3.444a132.639,132.639,0,0,1,14.872,5.738,111.637,111.637,0,0,1,15.588,8.648,98.614,98.614,0,0,1,14.78,12.1,90.329,90.329,0,0,1,12.372,15.39l1.309,2.116.654,1.058.593,1.092c.779,1.461,1.579,2.915,2.318,4.388l4.255,8.736,4.118,8.65,3.918,8.485c1.284,2.786,2.5,5.548,3.718,8.239s2.334,5.357,3.461,7.933c2.223,5.167,4.276,10.074,6.142,14.615l2.644,6.529,2.3,5.924c1.421,3.728,2.639,6.985,3.615,9.679s1.714,4.82,2.208,6.274l.747,2.237a.537.537,0,0,1-1.011.361l0-.012-.831-2.189-2.426-6.171c-1.053-2.655-2.365-5.867-3.891-9.542L784.1,1180c-1.942-4.5-4.077-9.354-6.386-14.469s-4.778-10.493-7.362-16.043-5.321-11.25-8.1-17.041l-4.274-8.727c-.723-1.436-1.508-2.836-2.25-4.264l-.568-1.064-.629-1.03-1.258-2.062a87.782,87.782,0,0,0-11.925-15.032,96.2,96.2,0,0,0-14.341-11.892,115.57,115.57,0,0,0-15.15-8.719,130.617,130.617,0,0,0-14.552-5.91c-4.617-1.553-8.917-2.789-12.769-3.724s-7.249-1.6-10.058-2.068-5.027-.768-6.542-.937-2.32-.226-2.32-.226a.431.431,0,0,1,.04-.861Z" transform="translate(-624.074 -1042.76)" fill="#f4f4f4"/>
        </g>
        <g id="Group_1911" data-name="Group 1911" transform="translate(2.887 194.906)">
          <path id="Path_16547" data-name="Path 16547" d="M698.153,1710.8c3.427,1.807-19.3-37.314-21.046-71.781s-9.52-93.293-39.242-128.482-62.271-38.4-103.284-6.41c-34.178,26.659-55.5,40.112-68,42.613a4.724,4.724,0,0,0-3.169,6.889c8.019,14.768,30.691,48.689,68.759,46.3,48.558-3.046,107.406-34.612,125.342-8.279s15.633,41.067,16.184,53.546S675.476,1698.839,698.153,1710.8Z" transform="translate(-462.835 -1482.006)" fill="#ffd561"/>
          <path id="Path_16548" data-name="Path 16548" d="M916.208,1716.571s.507-.477,1.476-1.323,2.413-2.072,4.314-3.544,4.246-3.218,7.023-5.1,6.015-3.856,9.656-5.826a91.4,91.4,0,0,1,12.2-5.531c2.236-.832,4.6-1.513,7.032-2.151a57.927,57.927,0,0,1,7.6-1.355c1.3-.179,2.636-.2,3.97-.28.669-.011,1.343.006,2.018.009l1.014.009,1.017.075a40.316,40.316,0,0,1,8.16,1.356c2.563.707,5.256,1.612,7.824,2.59a79.024,79.024,0,0,1,7.585,3.471,72.4,72.4,0,0,1,7.108,4.383,70.894,70.894,0,0,1,6.432,5.223,68.834,68.834,0,0,1,10.389,12.229,92.549,92.549,0,0,1,7.243,13.07,123.742,123.742,0,0,1,4.838,12.431c1.288,3.92,2.3,7.563,3.106,10.808.411,1.621.781,3.142,1.086,4.556.323,1.41.611,2.706.841,3.884.488,2.349.813,4.2,1.034,5.469l.345,1.938a.479.479,0,0,1-.938.188l0-.01-.423-1.915-.507-2.3-.737-3.1c-.264-1.163-.59-2.442-.953-3.832-.347-1.394-.76-2.891-1.217-4.486-.9-3.193-2.017-6.765-3.394-10.6a102.842,102.842,0,0,0-12.293-24.755,70.859,70.859,0,0,0-10.136-11.708,68.456,68.456,0,0,0-6.206-4.974,69.767,69.767,0,0,0-6.85-4.164,76.334,76.334,0,0,0-7.321-3.293c-2.527-.94-4.982-1.754-7.612-2.464a38.147,38.147,0,0,0-7.583-1.286l-.952-.076-.954-.012c-.635-.005-1.267-.025-1.9-.018-1.262.077-2.518.082-3.757.249a57.467,57.467,0,0,0-7.269,1.2c-2.346.582-4.635,1.2-6.814,1.981a89.978,89.978,0,0,0-12.037,5.074c-3.63,1.821-6.845,3.716-9.668,5.44s-5.216,3.347-7.158,4.722-3.433,2.5-4.444,3.279-1.526,1.21-1.526,1.21a.5.5,0,0,1-.661-.743Z" transform="translate(-830.388 -1651.871)" fill="#fff"/>
        </g>
        <g id="Group_1916" data-name="Group 1916" transform="translate(46.264 33.806)">
          <g id="Group_1915" data-name="Group 1915" transform="translate(0 0)">
            <circle id="Ellipse_944" data-name="Ellipse 944" cx="176.555" cy="176.555" r="176.555" transform="translate(0 249.687) rotate(-45)" fill="#fff"/>
            <g id="Group_1912" data-name="Group 1912" transform="translate(95.813 95.813)">
              <circle id="Ellipse_945" data-name="Ellipse 945" cx="150.683" cy="150.683" r="150.683" transform="translate(3.191 3.191)" fill="#30306d"/>
              <path id="Path_16549" data-name="Path 16549" d="M1353.138,1444.332a153.874,153.874,0,1,1,108.806-45.069A152.865,152.865,0,0,1,1353.138,1444.332Zm0-301.367c-81.327,0-147.492,66.165-147.492,147.493s66.165,147.493,147.492,147.493,147.493-66.165,147.493-147.493S1434.466,1142.965,1353.138,1142.965Z" transform="translate(-1199.265 -1136.584)" fill="#d9d9d9"/>
            </g>
            <g id="Group_1913" data-name="Group 1913" transform="translate(119.772 119.772)">
              <circle id="Ellipse_946" data-name="Ellipse 946" cx="91.864" cy="91.864" r="91.864" transform="translate(0 129.915) rotate(-45)" fill="#30306d"/>
              <path id="Path_16550" data-name="Path 16550" d="M1605.522,1637.9a95.055,95.055,0,1,1,95.055-95.054A95.162,95.162,0,0,1,1605.522,1637.9Zm0-183.727a88.673,88.673,0,1,0,88.673,88.673A88.773,88.773,0,0,0,1605.522,1454.168Z" transform="translate(-1475.608 -1412.926)" fill="#f4f4f4"/>
            </g>
            <g id="Group_1914" data-name="Group 1914" transform="translate(199.354 199.354)">
              <circle id="Ellipse_947" data-name="Ellipse 947" cx="35.591" cy="35.591" r="35.591" transform="translate(0 50.333) rotate(-45)" fill="#f90a8b"/>
              <path id="Path_16551" data-name="Path 16551" d="M1846.979,1823.079a38.781,38.781,0,1,1,38.782-38.781A38.825,38.825,0,0,1,1846.979,1823.079Zm0-71.182a32.4,32.4,0,1,0,32.4,32.4A32.436,32.436,0,0,0,1846.979,1751.9Z" transform="translate(-1796.646 -1733.965)" fill="#f4f4f4"/>
            </g>
          </g>
        </g>
        <g id="Group_1917" data-name="Group 1917" transform="translate(0.81 158.999)">
          <path id="Path_16552" data-name="Path 16552" d="M2239.119,1613.366l98.7-185.675H2317.6a4.33,4.33,0,0,1-3.415-7.088l105.195-125.9c4.559-5.457,13.565-2,13.142,5.05l-7.394,123.111a12.463,12.463,0,0,1-13.931,11.5l-14.1-1.584-97.93,208.253a15.614,15.614,0,0,1-14.157,8.893h-33.941Z" transform="translate(-1901.313 -1292.025)" fill="#f4c546"/>
          <path id="Path_16553" data-name="Path 16553" d="M1807.37,2190.639l69.68,151.991a25.581,25.581,0,0,0,23.3,14.792h35.922a13.157,13.157,0,0,0,11.469-6.631l1.278-2.262h0a10.294,10.294,0,0,1-9.148-5.5l-92.84-178.623Z" transform="translate(-1551.167 -1999.52)" fill="#ffd561"/>
          <path id="Path_16554" data-name="Path 16554" d="M1262.005,2106.693h0a15.413,15.413,0,0,0-22.129,3.453l-102.449,151.144a44.478,44.478,0,0,1-36.842,19.379h-14.416l-11.732-33.186s95.243-143.4,119.791-165.093c0,0,24.447-21.635,48.55-5.277a39.627,39.627,0,0,1,14.156,17.516Z" transform="translate(-956.763 -1923.765)" fill="#f4c546"/>
          <path id="Path_16555" data-name="Path 16555" d="M451.847,2419.195s23.4-12.083,56.627-15.358c0,0,15.784,5.28,47.228,60.607s52.316,80.558,76.808,66.777l-2.028,3.306a37.081,37.081,0,0,1-31.641,17.557H585.3a46.611,46.611,0,0,1-37.624-18.929C523.2,2499.748,466.881,2424.381,451.847,2419.195Z" transform="translate(-451.847 -2193.697)" fill="#ffd561"/>
          <path id="Path_16556" data-name="Path 16556" d="M3195.451,1504.871a.9.9,0,0,1-.111-.006.957.957,0,0,1-.841-1.061l.694-6.011a.957.957,0,1,1,1.9.219l-.694,6.011A.957.957,0,0,1,3195.451,1504.871Z" transform="translate(-2676.114 -1458.214)" fill="#fff" opacity="0.72"/>
          <path id="Path_16557" data-name="Path 16557" d="M2730.853,1452.172a.957.957,0,0,1-.752-1.548l86.864-110.831a3.615,3.615,0,0,1,4.26-1.112,3.5,3.5,0,0,1,2.206,3.7l-1.533,13.285a.957.957,0,1,1-1.9-.219l1.532-13.285a1.607,1.607,0,0,0-1.031-1.714,1.68,1.68,0,0,0-2.025.523l-86.865,110.831A.957.957,0,0,1,2730.853,1452.172Z" transform="translate(-2299.33 -1329.634)" fill="#fff" opacity="0.72"/>
          <path id="Path_16558" data-name="Path 16558" d="M1688.242,2253.4a.957.957,0,0,1-.788-1.5l44.924-65.388a7.961,7.961,0,0,1,13.679,1.022.957.957,0,0,1-1.725.831,6.046,6.046,0,0,0-10.376-.77l-44.924,65.388A.955.955,0,0,1,1688.242,2253.4Z" transform="translate(-1453.779 -2014.679)" fill="#fff" opacity="0.72"/>
          <path id="Path_16559" data-name="Path 16559" d="M1626.475,2618.781a.957.957,0,0,1-.788-1.5l2.88-4.193a.957.957,0,1,1,1.578,1.083l-2.88,4.193A.956.956,0,0,1,1626.475,2618.781Z" transform="translate(-1403.686 -2363.062)" fill="#fff" opacity="0.72"/>
        </g>
        <g id="Group_1923" data-name="Group 1923" transform="translate(425.25 304.265)">
          <circle id="Ellipse_948" data-name="Ellipse 948" cx="41.095" cy="41.095" r="41.095" transform="translate(0 58.117) rotate(-45)" fill="#f90a8b"/>
        </g>
        <g id="Group_1924" data-name="Group 1924" transform="translate(379.259 171.055)">
          <path id="Path_16564" data-name="Path 16564" d="M2535.509,1453.416h-71.46a9.9,9.9,0,0,1-9.9-9.9v-71.651a9.9,9.9,0,0,1,9.1-9.863l76.136-6.162a9.9,9.9,0,0,1,10.676,10.457l-4.676,77.814A9.9,9.9,0,0,1,2535.509,1453.416Z" transform="translate(-2454.154 -1355.81)" fill="#f90a8b"/>
        </g>
        <g id="Group_1926" data-name="Group 1926" transform="translate(328.353 26.906)">
          <path id="Path_16566" data-name="Path 16566" d="M2773.84,789.009l-72-1.185a9.059,9.059,0,0,1-8.891-9.628l4.736-75.026a9.059,9.059,0,0,1,7.851-8.409l62.744-5.013c6.006-.8,18.671,6.725,17.721,12.709l-3.069,78.915A9.058,9.058,0,0,1,2773.84,789.009Z" transform="translate(-2692.933 -689.69)" fill="#f90a8b"/>
        </g>
        <g id="Group_1932" data-name="Group 1932" transform="translate(100.398 196.237)">
          <path id="Path_16570" data-name="Path 16570" d="M1366.831,3184.926c-6.383.552-17.462,1.448-26.2,1.832-5.25.231-8.273-.283-10.013-.979,0,.2.008.381.016.553a1.807,1.807,0,0,0,1.716,1.707,306.908,306.908,0,0,0,34.3.034,1.286,1.286,0,0,0,1.048-1.932A10.479,10.479,0,0,0,1366.831,3184.926Z" transform="translate(-1264.115 -2864.394)" fill="url(#linear-gradient)"/>
          <path id="Path_16571" data-name="Path 16571" d="M1340.626,3131.452c8.734-.385,19.812-1.281,26.2-1.832-6.276-7.7-26.2-12.89-26.2-12.89H1335a23.593,23.593,0,0,0-4.387,13.742C1332.354,3131.169,1335.376,3131.683,1340.626,3131.452Z" transform="translate(-1264.106 -2809.087)" fill="url(#linear-gradient-2)"/>
          <path id="Path_16572" data-name="Path 16572" d="M1348.823,3068.136l.526,10.418a2.379,2.379,0,0,0,2.031,2.238,9.258,9.258,0,0,0,4.226-.35,2.815,2.815,0,0,0,1.893-2.164l1.819-10.142Z" transform="translate(-1278.876 -2769.677)" fill="url(#linear-gradient-3)"/>
          <g id="Group_1929" data-name="Group 1929" transform="translate(0 301.667)">
            <path id="Path_16573" data-name="Path 16573" d="M983.4,3229.873a5.492,5.492,0,0,1-4.546-4.344l-.01.054a4.953,4.953,0,0,0,2.425,5.3,12.617,12.617,0,0,0,6.712,1.358,6.207,6.207,0,0,0,5.033-3l.016-.026C990.942,3230.548,988.015,3230.7,983.4,3229.873Z" transform="translate(-978.749 -3198.989)" fill="url(#linear-gradient)"/>
            <path id="Path_16574" data-name="Path 16574" d="M996.9,3085.113h-4.64c-7.067-.187-11.5,19.078-12.958,26.538a5.492,5.492,0,0,0,4.546,4.344c4.617.832,7.544.675,9.63-.658,3.818-6.494,5.711-16,6.621-21.554C1001.129,3087.471,996.9,3085.113,996.9,3085.113Z" transform="translate(-979.194 -3085.112)" fill="url(#linear-gradient-2)"/>
          </g>
          <path id="Path_16575" data-name="Path 16575" d="M1039.6,3033.956l-2.576,10.247a2.781,2.781,0,0,0,1.447,3.152,9.873,9.873,0,0,0,5.335,1.292,2.324,2.324,0,0,0,1.9-1.549l3.782-10.781Z" transform="translate(-1025.939 -2741.958)" fill="url(#linear-gradient-3)"/>
          <path id="Path_16576" data-name="Path 16576" d="M1133.008,2307.447s-23.023,143.915-22.644,144.706a19.15,19.15,0,0,1-13.291.369s2.082-76.933,6.96-106.431c0,0-39.293,68.763-51.771,103.026a31.19,31.19,0,0,1-11.9-4.321s42.308-123.771,53.595-140.256Z" transform="translate(-1028.721 -2150.406)" fill="#30306d"/>
          <path id="Path_16577" data-name="Path 16577" d="M1379.161,2450.143a.68.68,0,0,1-.576-1.04l8.6-13.742a.684.684,0,0,1,.442-.307l6.332-1.274a.68.68,0,1,1,.269,1.333l-6.045,1.217-8.448,13.494A.68.68,0,0,1,1379.161,2450.143Z" transform="translate(-1302.93 -2255.208)" fill="url(#linear-gradient-7)"/>
          <path id="Path_16578" data-name="Path 16578" d="M1845.4,1574.317s-15.535,3.426-24.985,7.789a8.63,8.63,0,0,0-4.226,4.249c-2.826,6.19-11.281,21.714-27.679,29.123,2.361,3.134,6.164,9.654,7.82,20.611,9.849-7.33,18.351-19.572,22.433-39.648a8.011,8.011,0,0,0,6.986-.193c2.049-1,4.414-2.406,6.19-3.516a8.111,8.111,0,0,0,3.6-4.833c.676-2.651.278-4.983.278-7.484l7.985-2.474A2.84,2.84,0,0,0,1845.4,1574.317Z" transform="translate(-1635.458 -1558.201)" fill="url(#linear-gradient-8)"/>
          <path id="Path_16579" data-name="Path 16579" d="M1250.807,1808.15c-1.656-10.958-5.459-17.478-7.82-20.612-10.187,4.6-23.437,6.073-40.31.227a17.926,17.926,0,0,0-4.823-.951c-8.983-.527-38.583-1.488-63.076,6.6a19.033,19.033,0,0,0-11.482,10.452c-6.626,15.205-17.353,49.833,12.426,67.315a73.851,73.851,0,0,1,7.187-13.6c-4.8-8.089-6.216-19.137,2.294-33.525,6.205,16.756,9.116,41.2,9.725,52.025a23.254,23.254,0,0,1-1.822,10.407l-.152.359a1.231,1.231,0,0,0,.865,1.682c16.765,3.766,34.2,2.743,39.41,2.312a2.149,2.149,0,0,0,1.916-1.641c8.152-34.35,8.171-57.781,6.175-72.593C1208.946,1818.314,1232.265,1821.951,1250.807,1808.15Z" transform="translate(-1089.937 -1730.261)" fill="#f90a8b"/>
          <path id="Path_16580" data-name="Path 16580" d="M1539.779,1854.372a.68.68,0,0,1-.674-.59c-1.914-14.463-5.813-20.774-5.852-20.836a.68.68,0,0,1,1.148-.728c.167.262,4.093,6.582,6.052,21.386a.68.68,0,0,1-.585.763A.7.7,0,0,1,1539.779,1854.372Z" transform="translate(-1428.363 -1767.1)" fill="url(#linear-gradient-9)"/>
          <path id="Path_16581" data-name="Path 16581" d="M1335.359,1682.388s-1.7,17.932-3.189,23.236a1.814,1.814,0,0,0,.854,2.071c2.534,1.448,8.613,3.81,16.927-.265a3.772,3.772,0,0,0,2.094-3.55l-.732-17.328Z" transform="translate(-1265.316 -1645.845)" fill="url(#linear-gradient-10)"/>
          <g id="Group_1930" data-name="Group 1930" transform="translate(54.875)">
            <path id="Path_16582" data-name="Path 16582" d="M1342.33,1561.014s5.424,12.461,5.789,19,1.774,10.784-5.789,12.1-13.933-2.45-17.384-8.965c0,0-5.407-10.039-4.194-14.15S1342.33,1561.014,1342.33,1561.014Z" transform="translate(-1310.841 -1547.412)" fill="url(#linear-gradient-11)"/>
            <path id="Path_16583" data-name="Path 16583" d="M1285.77,1520.1l.431-.19a1.038,1.038,0,0,0,.507-1.426c-1.066-2.06-3.145-6.782-.46-7.883,3.461-1.42,17.171-4.215,20.129-9.08,2.843-4.675.324-10.711-3.462-12.427a.521.521,0,0,0-.682.222l-.315.6a.514.514,0,0,1-.948-.1.511.511,0,0,0-.925-.133c-.909,1.455-3.364,3.815-9.928,5.026-9.329,1.722-15.5,5.5-15.651,11.944a.515.515,0,0,1-.8.424c-.689-.42-1.791-.617-3.264.622-2.562,2.154-1.514,7.743,4.1,12.34a.51.51,0,0,1-.024.823c-1.018.663-2.536,2.24,1.4,4.343,4.068,2.175,7.106,2,8.276,1.8a.512.512,0,0,0,.415-.618l-1.249-5.666a.514.514,0,0,1,.5-.625Z" transform="translate(-1269.082 -1489.047)" fill="#ffd561"/>
            <path id="Path_16584" data-name="Path 16584" d="M1329.379,1633.41s-2.07-7.96-5.638-5.728,1.852,8.919,4.721,9.216Z" transform="translate(-1312.456 -1601.158)" fill="url(#linear-gradient-12)"/>
          </g>
          <path id="Path_16585" data-name="Path 16585" d="M1960.758,1627.266a.68.68,0,0,1-.527-1.109c.588-.723,5.8-7.1,7.81-8.232.731-.413,1.167-.839,1.259-1.233a1,1,0,0,0-.091-.64l-6.126,1.228-3.471,2.978a.68.68,0,1,1-.885-1.032l3.605-3.094a.687.687,0,0,1,.309-.151l6.781-1.359a.676.676,0,0,1,.7.287,2.589,2.589,0,0,1,.5,2.095,3.5,3.5,0,0,1-1.913,2.1c-1.511.854-5.871,6-7.424,7.906A.677.677,0,0,1,1960.758,1627.266Z" transform="translate(-1773.312 -1590.877)" fill="#f8a570"/>
          <path id="Path_16586" data-name="Path 16586" d="M1246.742,2184.907l23.977.3-8.391-7.9a6.263,6.263,0,0,0-7.677-.72,18.139,18.139,0,0,0-4.263,3.8s-14.957-5.466-22.207-17.7a73.835,73.835,0,0,0-7.187,13.6C1227.493,2180.1,1235.918,2183.105,1246.742,2184.907Z" transform="translate(-1175.207 -2035.365)" fill="url(#linear-gradient-13)"/>
          <g id="Group_1931" data-name="Group 1931" transform="translate(71.531 97.958)">
            <path id="Path_16587" data-name="Path 16587" d="M1359.792,2273.2c.047,0,.093,0,.14,0l60.863-.066a2.7,2.7,0,1,0-.006-5.391l-60.863.066a2.695,2.695,0,0,0-.134,5.388Z" transform="translate(-1357.204 -2218.527)" fill="url(#linear-gradient-14)"/>
            <path id="Path_16588" data-name="Path 16588" d="M1627.6,2007.322h-50.687a9.668,9.668,0,0,0-8.737,5.481l-23.433,49.163h62.991a5.871,5.871,0,0,0,5.46-3.674l18.171-45.493A4.01,4.01,0,0,0,1627.6,2007.322Z" transform="translate(-1509.298 -2007.322)" fill="url(#linear-gradient-15)"/>
            <ellipse id="Ellipse_951" data-name="Ellipse 951" cx="6.429" cy="3.989" rx="6.429" ry="3.989" transform="matrix(0.313, -0.95, 0.95, 0.313, 80.594, 31.275)" fill="#91b3fa"/>
          </g>
        </g>
      </g>
    </g>
  </g>
</svg>
