<svg xmlns="http://www.w3.org/2000/svg" xmlns:xlink="http://www.w3.org/1999/xlink" width="148" height="148" viewBox="0 0 148 148">
  <defs>
    <clipPath id="clip-path">
      <rect id="Rectangle_975" data-name="Rectangle 975" width="148" height="148" transform="translate(1364 2808)" fill="#fff" stroke="#707070" stroke-width="1"/>
    </clipPath>
  </defs>
  <g id="Mask_Group_20" data-name="Mask Group 20" transform="translate(-1364 -2808)" clip-path="url(#clip-path)">
    <g id="Group_2003" data-name="Group 2003">
      <path id="Path_16689" data-name="Path 16689" d="M589.471,573.844a51.637,51.637,0,0,1-7.906,6.638c-25.791,18.453-56.308,13.074-62.794,11.761-9.578-1.94-28.09-5.689-41.475-21.385-20.25-23.747-17.1-61.159-1.389-85.855,2.873-4.517,18.049-29.59,48.9-33.611,18.668-2.433,40.428,2.474,56.186,15.64C614.067,494.667,611.712,550.5,589.471,573.844Z" transform="translate(2187.037 2848.782) rotate(133)" fill="#ffd561"/>
      <g id="Group_1987" data-name="Group 1987" transform="translate(1392 2827.717)">
        <path id="Path_16682" data-name="Path 16682" d="M0,0H109V109H0Z" fill="none"/>
        <path id="Path_16683" data-name="Path 16683" d="M7.542,21.167H21.167a4.542,4.542,0,0,0,4.542-4.542V12.083a9.083,9.083,0,1,1,18.167,0v4.542a4.542,4.542,0,0,0,4.542,4.542H62.042a4.542,4.542,0,0,1,4.542,4.542V39.333a4.542,4.542,0,0,0,4.542,4.542h4.542a9.083,9.083,0,1,1,0,18.167H71.125a4.542,4.542,0,0,0-4.542,4.542V80.208a4.542,4.542,0,0,1-4.542,4.542H48.417a4.542,4.542,0,0,1-4.542-4.542V75.667a9.083,9.083,0,0,0-18.167,0v4.542a4.542,4.542,0,0,1-4.542,4.542H7.542A4.542,4.542,0,0,1,3,80.208V66.583a4.542,4.542,0,0,1,4.542-4.542h4.542a9.083,9.083,0,1,0,0-18.167H7.542A4.542,4.542,0,0,1,3,39.333V25.708a4.542,4.542,0,0,1,4.542-4.542" transform="translate(10.625 10.625)" fill="none" stroke="#f90a8b" stroke-linecap="round" stroke-linejoin="round" stroke-width="3"/>
      </g>
    </g>
  </g>
</svg>
