<svg xmlns="http://www.w3.org/2000/svg" xmlns:xlink="http://www.w3.org/1999/xlink" width="1200" height="628" viewBox="0 0 1200 628">
  <defs>
    <clipPath id="clip-path">
      <rect id="Rectangle_950" data-name="Rectangle 950" width="1200" height="628" transform="translate(-0.38 0.188)" fill="#fff"/>
    </clipPath>
    <radialGradient id="radial-gradient" cx="0.5" cy="0.5" r="0.68" gradientUnits="objectBoundingBox">
      <stop offset="0" stop-color="#e15e93"/>
      <stop offset="1" stop-color="#fff" stop-opacity="0"/>
    </radialGradient>
    <linearGradient id="linear-gradient" x1="0.5" x2="0.5" y2="1" gradientUnits="objectBoundingBox">
      <stop offset="0" stop-color="#fff"/>
      <stop offset="1" stop-color="#eac6eb"/>
    </linearGradient>
    <radialGradient id="radial-gradient-2" cx="0.5" cy="0.5" r="0.325" gradientUnits="objectBoundingBox">
      <stop offset="0" stop-color="#ffd561"/>
      <stop offset="1" stop-color="#fff" stop-opacity="0"/>
    </radialGradient>
    <filter id="Rectangle_949" x="526" y="554" width="155" height="151" filterUnits="userSpaceOnUse">
      <feOffset dy="50" input="SourceAlpha"/>
      <feGaussianBlur stdDeviation="25" result="blur"/>
      <feFlood flood-color="#fff" flood-opacity="0.282"/>
      <feComposite operator="in" in2="blur"/>
      <feComposite in="SourceGraphic"/>
    </filter>
  </defs>
  <g id="Mask_Group_10" data-name="Mask Group 10" transform="translate(0.38 -0.188)" clip-path="url(#clip-path)">
    <g id="Group_1888" data-name="Group 1888" transform="translate(-334.581 -564.498)">
      <rect id="Rectangle_945" data-name="Rectangle 945" width="2057" height="654" transform="translate(334.202 860.687)" fill="url(#radial-gradient)"/>
      <g id="Group_1886" data-name="Group 1886" transform="translate(0 0)">
        <rect id="Rectangle_946" data-name="Rectangle 946" width="1200" height="628" transform="translate(334.202 564.687)" fill="url(#linear-gradient)"/>
        <rect id="Rectangle_947" data-name="Rectangle 947" width="1662" height="1054" transform="translate(0.202 -0.313)" fill="url(#radial-gradient-2)"/>
        <rect id="Rectangle_948" data-name="Rectangle 948" width="2057" height="654" transform="translate(334.202 860.687)" fill="url(#radial-gradient)"/>
      </g>
      <g id="Group_1887" data-name="Group 1887" transform="translate(935.541 1143.918)" opacity="0">
        <g transform="matrix(1, 0, 0, 1, -601.34, -579.23)" filter="url(#Rectangle_949)">
          <g id="Rectangle_949-2" data-name="Rectangle 949" transform="translate(601 579)" fill="none" stroke="#fff" stroke-width="1">
            <path d="M0,0H4A1,1,0,0,1,5,1V1A0,0,0,0,1,5,1H1A1,1,0,0,1,0,0V0A0,0,0,0,1,0,0Z" stroke="none"/>
            <path d="M.5.5h4a0,0,0,0,1,0,0v0a0,0,0,0,1,0,0H.5a0,0,0,0,1,0,0v0A0,0,0,0,1,.5.5Z" fill="none"/>
          </g>
        </g>
        <text id="Next" transform="translate(1 1.596)" fill="#fff" font-size="1" font-family="Ubuntu-Bold, Ubuntu" font-weight="700"><tspan x="-1" y="0">Next</tspan></text>
      </g>
    </g>
  </g>
</svg>
